<?xml version="1.0" standalone="no"?>
<!DOCTYPE svg PUBLIC "-//W3C//DTD SVG 1.1//EN" "http://www.w3.org/Graphics/SVG/1.1/DTD/svg11.dtd" >
<svg xmlns="http://www.w3.org/2000/svg">
<metadata></metadata>
<defs>
<font id="courier_prime_sansbold_italic" horiz-adv-x="1228" >
<font-face units-per-em="2048" ascent="1638" descent="-410" />
<missing-glyph horiz-adv-x="500" />
<glyph horiz-adv-x="0" />
<glyph horiz-adv-x="682" />
<glyph unicode=" " />
<glyph unicode="!" d="M407 44q0 6 1 9l38 214q6 34 42.5 48.5t117.5 14.5q77 0 114 -13t37 -41q0 -6 -1 -9l-38 -214q-6 -34 -42.5 -48.5t-117.5 -14.5q-77 0 -114 13t-37 41zM544 562l59 657q4 50 50 50h230q35 0 35 -29q0 -9 -3 -21l-173 -657q-15 -58 -109 -58t-89 58z" />
<glyph unicode="&#x22;" d="M301 739l30 480q3 50 50 50h234q35 0 35 -29q0 -9 -3 -21l-140 -480q-9 -33 -36.5 -50.5t-78.5 -17.5q-52 0 -72.5 17.5t-18.5 50.5zM841 739l30 480q3 50 50 50h234q35 0 35 -29q0 -9 -3 -21l-140 -480q-9 -33 -36.5 -50.5t-78.5 -17.5q-52 0 -72.5 17.5t-18.5 50.5z " />
<glyph unicode="#" d="M38 308q0 26 7 61q8 47 19 71t25.5 33t38.5 9h156l100 233h-125q-26 0 -38 10.5t-12 40.5q0 26 7 61q8 47 19 71t25.5 33t38.5 9h182l102 236q14 33 83 33q48 0 81 -14.5t33 -38.5q0 -6 -3 -14l-87 -202h215l102 236q14 33 83 33q48 0 81 -14.5t33 -38.5q0 -6 -3 -14 l-87 -202h97q26 0 38 -11t12 -41q0 -26 -7 -61q-8 -47 -18.5 -71t-25.5 -32.5t-39 -8.5h-154l-100 -233h123q26 0 38 -11t12 -41q0 -26 -7 -61q-8 -47 -18.5 -71t-25.5 -32.5t-39 -8.5h-180l-106 -246q-14 -33 -83 -33q-48 0 -81 14.5t-33 38.5q0 7 3 14l91 212h-215 l-106 -246q-14 -33 -83 -33q-48 0 -81 14.5t-33 38.5q0 7 3 14l91 212h-99q-26 0 -38 10.5t-12 40.5zM493 482h215l100 233h-215z" />
<glyph unicode="$" d="M154 256q0 27 11 60q14 44 35.5 64t46.5 20q11 0 26 -5q119 -45 236 -59l29 167q-130 18 -201 59q-106 61 -106 188q0 101 51 176t144 116.5t215 43.5l29 163q6 35 27.5 49t76.5 14q47 0 65.5 -10t18.5 -34q0 -5 -2 -19l-31 -175q133 -19 250 -60q46 -16 46 -66 q0 -24 -12 -60q-14 -43 -36 -63.5t-47 -20.5q-11 0 -26 5q-105 40 -212 56l-28 -157q137 -17 208 -54q111 -60 111 -185q0 -100 -48 -177t-143 -122t-231 -51l-32 -181q-6 -35 -28 -49t-77 -14q-46 0 -64.5 10t-18.5 34q0 5 2 19l33 188q-144 17 -273 64q-45 16 -45 66z M491 783q0 -23 21 -36.5t66 -20.5l25 144q-55 -7 -83.5 -29t-28.5 -58zM695 335q61 8 90.5 30.5t29.5 55.5q0 24 -21.5 38.5t-72.5 23.5z" />
<glyph unicode="%" d="M51 201q0 13 7.5 24t22.5 24l1024 834q25 20 43 20q14 0 29 -11.5t36 -37.5q33 -42 33 -66q0 -13 -7.5 -24t-23.5 -24l-1024 -834q-26 -21 -43 -21q-15 0 -30 11.5t-35 37.5q-32 42 -32 67zM110 908q0 84 37.5 152.5t106.5 108.5t158 40q75 0 132.5 -31.5t88.5 -87.5 t31 -128q0 -84 -37.5 -152.5t-106.5 -108.5t-158 -40q-75 0 -132.5 31.5t-88.5 87.5t-31 128zM292 921q0 -36 22.5 -58.5t61.5 -22.5q46 0 76 31t30 78q0 36 -22.5 58.5t-61.5 22.5q-46 0 -76 -31t-30 -78zM631 225q0 84 37.5 152.5t106.5 108.5t158 40q75 0 132.5 -31.5 t88.5 -87.5t31 -128q0 -84 -37.5 -152.5t-106.5 -108.5t-158 -40q-75 0 -132.5 31.5t-88.5 87.5t-31 128zM813 238q0 -36 22.5 -58.5t61.5 -22.5q46 0 76 31t30 78q0 36 -22.5 58.5t-61.5 22.5q-46 0 -76 -31t-30 -78z" />
<glyph unicode="&#x26;" d="M114 274q0 233 242 374q-44 90 -44 180q0 110 50.5 196.5t143.5 135.5t217 49q79 0 149 -18.5t123 -51.5q38 -22 38 -63q0 -27 -21 -74q-36 -76 -80 -76q-12 0 -23 6q-90 50 -188 50q-43 0 -78.5 -17.5t-57 -51.5t-21.5 -79q0 -42 18 -82.5t53 -85.5l147 -188 q36 60 86 156q11 21 28 31t43 10q32 0 81 -15q47 -16 67.5 -32t20.5 -36q0 -14 -9 -31q-84 -166 -164 -278l110 -140q16 -21 16 -38q0 -18 -17 -38.5t-56 -46.5q-34 -22 -57 -32.5t-41 -10.5q-25 0 -44 24l-76 97q-73 -60 -155 -90t-177 -30q-101 0 -174 37t-111.5 104 t-38.5 155zM365 307q0 -48 29 -75t82 -27q76 0 154 72l-157 200q-54 -34 -81 -75.5t-27 -94.5z" />
<glyph unicode="'" d="M571 739l30 480q3 50 50 50h234q35 0 35 -29q0 -9 -3 -21l-140 -480q-9 -33 -36.5 -50.5t-78.5 -17.5q-52 0 -72.5 17.5t-18.5 50.5z" />
<glyph unicode="(" d="M266 361q0 207 77.5 396.5t229 347.5t370.5 270q14 6 25 6q26 0 50 -22.5t41 -56.5q22 -44 22 -86t-24 -55q-267 -145 -406 -338t-139 -457q0 -163 70 -291t212 -228q13 -9 13 -30q0 -20 -12 -46t-31 -51q-22 -28 -48 -46t-49 -18q-15 0 -26 7q-103 65 -188 165.5 t-136 236t-51 296.5z" />
<glyph unicode=")" d="M189 -178q0 42 24 55q267 145 406 338t139 457q0 163 -70 291t-212 228q-13 9 -13 30q0 20 12 46t31 51q22 28 48 46t49 18q15 0 26 -7q103 -65 188 -165.5t136 -236t51 -296.5q0 -207 -77.5 -396.5t-229 -347.5t-370.5 -270q-13 -6 -25 -6q-26 0 -50 22.5t-41 56.5 q-22 44 -22 86z" />
<glyph unicode="*" d="M273 850q0 28 13 61q17 43 48.5 65t68.5 22q35 0 64 -20l160 -108l-11 205q-3 58 31 96t100 38q51 0 79.5 -27.5t28.5 -69.5q0 -26 -10 -50l-82 -203l192 105q37 20 68 20q33 0 57.5 -21.5t34.5 -63.5q4 -16 4 -35q0 -49 -34 -80t-89 -36l-211 -19l139 -142 q33 -35 33 -78q0 -29 -17 -55t-53 -45q-41 -22 -76 -22q-33 0 -55.5 19t-32.5 54l-58 198l-111 -192q-19 -34 -47.5 -52.5t-60.5 -18.5q-41 0 -77 30q-43 36 -43 82q0 27 15 53t43 47l176 132l-194 18q-43 4 -68 28t-25 65z" />
<glyph unicode="+" d="M195 521q0 26 7 61q8 47 19 71t25.5 33t38.5 9h268l47 268q4 24 15 37t36.5 19.5t72.5 6.5q59 0 81 -10t22 -34q0 -5 -2 -19l-47 -268h269q26 0 38 -11t12 -41q0 -26 -7 -61q-8 -47 -18.5 -71t-25.5 -32.5t-39 -8.5h-269l-47 -269q-4 -24 -15 -37t-36 -19.5t-72 -6.5 q-59 0 -81.5 10t-22.5 35q0 4 2 18l47 269h-268q-26 0 -38 10.5t-12 40.5z" />
<glyph unicode="," d="M248 -247q0 5 4 19l187 542q7 19 22.5 29.5t36.5 10.5h245q16 0 25 -8t9 -22q0 -16 -11 -33l-325 -537q-29 -48 -115 -48q-36 0 -57 12t-21 35z" />
<glyph unicode="-" d="M195 521q0 26 7 61q8 47 19 71t25.5 33t38.5 9h762q26 0 38 -11t12 -41q0 -26 -7 -61q-8 -47 -18.5 -71t-25.5 -32.5t-39 -8.5h-762q-26 0 -38 10.5t-12 40.5z" />
<glyph unicode="." d="M387 45q0 5 1 8l45 254q6 34 44 48.5t124 14.5q83 0 123 -13t40 -42q0 -5 -1 -8l-45 -254q-6 -34 -44 -48.5t-124 -14.5q-83 0 -123 13t-40 42z" />
<glyph unicode="/" d="M48 -274q0 14 9 31l927 1608q19 34 88 34q57 0 104 -24t47 -62q0 -16 -10 -32l-927 -1608q-19 -33 -86 -33q-56 0 -104 24.5t-48 61.5z" />
<glyph unicode="0" d="M158 447q0 180 63.5 355.5t195 291t325.5 115.5q125 0 214.5 -58.5t136 -164.5t46.5 -246q0 -180 -63.5 -355.5t-195 -291t-325.5 -115.5q-125 0 -214.5 58.5t-136 164.5t-46.5 246zM416 439q0 -110 42.5 -167t121.5 -57q99 0 167 84t101 208t33 241q0 110 -42.5 167 t-121.5 57q-99 0 -167 -84t-101 -208t-33 -241z" />
<glyph unicode="1" d="M173 54q0 22 6 58q11 67 29.5 90t54.5 23h226l111 631l-208 -108q-18 -9 -33 -9q-42 0 -75 79q-18 42 -18 70q0 40 42 62l480 246q26 14 55 16h5q24 0 39 -12.5t15 -36.5q0 -10 -1 -15l-162 -923h256q26 0 37 -11.5t11 -41.5q0 -22 -6 -60q-7 -46 -17.5 -70t-25.5 -33 t-39 -9h-732q-26 0 -38 11.5t-12 42.5z" />
<glyph unicode="2" d="M128 60q0 18 3 43q9 78 40 103l462 390q102 87 144 141.5t42 112.5q0 56 -35 89t-101 33q-64 0 -135 -20t-154 -58q-14 -7 -29 -7q-22 0 -39 21t-33 67q-13 38 -13 66q0 51 46 74q185 94 382 94q118 0 201 -41.5t126 -116.5t43 -176q0 -122 -59.5 -218.5t-188.5 -201.5 l-271 -220h418q26 0 37.5 -12t11.5 -43q0 -27 -7 -63q-8 -47 -19 -72.5t-25.5 -35t-38.5 -9.5h-756q-28 0 -40 12.5t-12 47.5z" />
<glyph unicode="3" d="M151 106q0 34 23 87q39 89 81 89q10 0 18 -4q133 -63 267 -63q123 0 178.5 50t55.5 126q0 53 -38 80t-111 27h-103q-26 0 -37.5 12t-11.5 43q0 23 6 57q11 65 29.5 89t53.5 24h76q106 0 154 43.5t48 108.5q0 107 -145 107q-70 0 -142.5 -16t-140.5 -44q-8 -4 -19 -4 q-43 0 -72 80q-12 38 -12 64q0 49 42 70q76 37 172 57t194 20q182 0 281 -78t99 -219q0 -99 -47.5 -177t-141.5 -123q62 -32 96.5 -88.5t34.5 -131.5q0 -106 -51 -200t-164 -154t-290 -60q-101 0 -191.5 20.5t-162.5 56.5q-29 14 -29 51z" />
<glyph unicode="4" d="M109 314q0 27 7 63q13 76 34 99l575 664q31 35 71 52t96 17q120 0 120 -72q0 -6 -2 -18l-110 -624h152q26 0 37.5 -12t11.5 -43q0 -27 -7 -63q-8 -47 -19 -72.5t-26 -35t-39 -9.5h-152l-34 -197q-6 -34 -23 -48.5t-51 -14.5h-124q-28 0 -41 10t-13 32q0 5 2 21l34 197 h-450q-26 0 -37.5 12t-11.5 42zM435 495h223l81 361z" />
<glyph unicode="5" d="M146 120q0 32 24 86q40 88 80 88q10 0 20 -5q152 -74 270 -74q78 0 132 27.5t81 74t27 102.5q0 61 -38.5 95.5t-109.5 34.5q-80 0 -174 -36q-24 -9 -42 -13t-37 -4q-62 0 -98.5 14t-36.5 41q0 7 1 11l130 560q8 35 25.5 50t51.5 15h608q26 0 37 -12.5t11 -44.5 q0 -23 -6 -61q-11 -67 -30.5 -92t-54.5 -25h-442l-48 -213q51 19 95 28t93 9q107 0 182 -42.5t113 -116.5t38 -168q0 -132 -55.5 -238.5t-173 -169.5t-295.5 -63q-93 0 -182.5 23.5t-166.5 65.5q-29 15 -29 53z" />
<glyph unicode="6" d="M179 418q0 221 98.5 400t299 285t493.5 106q26 0 38.5 -27.5t12.5 -85.5q0 -64 -14.5 -96t-38.5 -33q-182 -4 -303 -41t-193.5 -108.5t-110.5 -183.5q63 53 131.5 80t152.5 27q98 0 172 -42t114 -117t40 -172q0 -112 -58.5 -211.5t-167.5 -160t-253 -60.5 q-211 0 -312 120.5t-101 319.5zM432 340q0 -60 43 -99.5t120 -39.5q68 0 118.5 27t77 71.5t26.5 96.5q0 64 -41 98.5t-116 34.5q-69 0 -120.5 -26t-79.5 -69t-28 -94z" />
<glyph unicode="7" d="M279 1006q0 27 7 63q12 69 30.5 93.5t53.5 24.5h766q27 0 39 -11t12 -40q0 -20 -6 -52q-9 -50 -22 -72l-576 -988q-27 -46 -110 -46q-57 0 -103 24.5t-46 61.5q0 16 10 33l504 855h-510q-26 0 -37.5 12t-11.5 42z" />
<glyph unicode="8" d="M162 286q0 128 65 216t189 124q-58 32 -89.5 84t-31.5 122q0 96 53 182.5t157.5 140.5t251.5 54q109 0 186 -40.5t116 -108.5t39 -150q0 -111 -55.5 -187.5t-150.5 -109.5q73 -34 112.5 -92.5t39.5 -141.5q0 -102 -51 -193.5t-164 -149.5t-289 -58q-116 0 -201.5 38 t-131 107.5t-45.5 162.5zM425 321q0 -58 39 -91.5t114 -33.5q70 0 117 28t69.5 72.5t22.5 94.5q0 59 -38.5 93t-113.5 34q-69 0 -116.5 -28.5t-70.5 -73.5t-23 -95zM536 822q0 -51 34.5 -80.5t98.5 -29.5q59 0 100 24.5t61.5 62.5t20.5 79q0 52 -35.5 82.5t-97.5 30.5 q-56 0 -97 -23.5t-63 -62t-22 -83.5z" />
<glyph unicode="9" d="M205 89q0 66 14 97.5t39 33.5q178 9 293 46t184.5 106t109.5 181q-71 -54 -141 -80.5t-153 -26.5q-98 0 -172 42t-114 117t-40 172q0 112 58.5 211.5t167.5 160t253 60.5q211 0 312 -120.5t101 -319.5q0 -216 -91 -391.5t-284 -283t-485 -116.5q-27 -1 -39.5 26.5 t-12.5 84.5zM479 791q0 -64 41 -98.5t116 -34.5q69 0 120.5 26t79.5 69t28 94q0 60 -43 99.5t-120 39.5q-68 0 -118.5 -27t-77 -71.5t-26.5 -96.5z" />
<glyph unicode=":" d="M387 45q0 5 1 8l38 214q6 34 44 48.5t124 14.5q83 0 123 -13t40 -42q0 -5 -1 -8l-38 -214q-6 -34 -44 -48.5t-124 -14.5q-83 0 -123 13t-40 42zM493 649q0 5 1 8l38 214q6 34 44 48.5t124 14.5q83 0 123 -13t40 -42q0 -5 -1 -8l-38 -214q-6 -34 -44 -48.5t-124 -14.5 q-83 0 -123 13t-40 42z" />
<glyph unicode=";" d="M288 -247q0 5 4 19l187 542q7 19 22.5 29.5t36.5 10.5h245q16 0 25 -8t9 -22q0 -16 -11 -33l-325 -537q-29 -48 -115 -48q-36 0 -57 12t-21 35zM493 649q0 5 1 8l38 214q6 34 44 48.5t124 14.5q83 0 123 -13t40 -42q0 -5 -1 -8l-38 -214q-6 -34 -44 -48.5t-124 -14.5 q-83 0 -123 13t-40 42z" />
<glyph unicode="&#x3c;" d="M148 547q0 8 4 36q7 41 21 61t42 33l845 399q20 9 34 9q20 0 36.5 -18t33.5 -60q18 -46 18 -74q0 -43 -43 -63l-648 -297l521 -285q31 -17 31 -47q0 -34 -32 -87q-25 -42 -45 -60.5t-40 -18.5q-15 0 -30 9l-714 405q-17 10 -25.5 23t-8.5 35z" />
<glyph unicode="=" d="M155 292q0 26 7 61q8 47 19 71t25.5 33t38.5 9h762q26 0 38 -11t12 -41q0 -26 -7 -61q-8 -47 -18.5 -71t-25.5 -32.5t-39 -8.5h-762q-26 0 -38 10.5t-12 40.5zM236 750q0 26 7 61q8 47 19 71t25.5 33t38.5 9h762q26 0 38 -11t12 -41q0 -26 -7 -61q-8 -47 -18.5 -71 t-25.5 -32.5t-39 -8.5h-762q-26 0 -38 10.5t-12 40.5z" />
<glyph unicode="&#x3e;" d="M110 233q0 43 43 63l648 297l-521 285q-31 17 -31 47q0 34 32 87q25 42 45 60.5t40 18.5q15 0 30 -9l714 -405q17 -10 25.5 -23t8.5 -35q0 -8 -4 -36q-7 -41 -21 -61t-42 -33l-845 -399q-19 -9 -34 -9q-20 0 -36.5 18t-33.5 60q-18 47 -18 74z" />
<glyph unicode="?" d="M387 43q0 7 1 10l31 174q6 34 40 48.5t110 14.5q72 0 106.5 -12.5t34.5 -40.5q0 -7 -1 -10l-31 -174q-6 -34 -40 -48.5t-110 -14.5q-72 0 -106.5 12.5t-34.5 40.5zM393 1136q0 25 11 41.5t33 26.5q66 30 142.5 47.5t149.5 17.5q117 0 200.5 -38.5t126.5 -109t43 -164.5 q0 -143 -88 -240t-284 -139l-24 -91q-6 -25 -30.5 -36.5t-79.5 -11.5t-74.5 11.5t-17.5 36.5l17 208q3 44 39 51l113 20q85 15 129 55t44 105q0 54 -34.5 85t-101.5 31q-50 0 -106 -12t-110 -34q-12 -5 -22 -5q-38 0 -64 82q-12 38 -12 63z" />
<glyph unicode="@" d="M24 285q0 190 94.5 374t265 301.5t386.5 117.5q137 0 238 -58t154.5 -160.5t53.5 -232.5q0 -134 -47 -250t-132 -185.5t-195 -69.5q-69 0 -108 38t-44 101q-104 -144 -223 -144q-71 0 -114.5 50t-43.5 136q0 104 59.5 221.5t151.5 196.5t185 79q50 0 77 -31t34 -84l45 69 q8 13 34 13q15 0 38 -6q21 -6 33 -15.5t12 -20.5q0 -3 -2 -9l-127 -312q-18 -45 -18 -74q0 -24 12 -38t33 -14q50 0 93 51.5t68 132t25 162.5q0 140 -82 220.5t-232 80.5q-158 0 -287 -95.5t-202.5 -242.5t-73.5 -292q0 -137 78.5 -216t226.5 -79q142 0 265 40q5 2 13 2 q28 0 37 -61q3 -17 3 -29q0 -41 -28 -53q-58 -23 -140.5 -37.5t-164.5 -14.5q-141 0 -243 54.5t-155 153t-53 230.5zM489 348q0 -32 14 -49.5t38 -17.5q35 0 82.5 51t81.5 122t34 126q0 63 -52 63q-37 0 -84 -50t-80.5 -120t-33.5 -125z" />
<glyph unicode="A" d="M15 64q0 17 12 38l580 1042q20 35 54.5 50t100.5 15q65 0 93.5 -15t35.5 -50l203 -1054q2 -12 2 -18q0 -27 -24.5 -44.5t-84.5 -29.5q-49 -10 -82 -10q-27 0 -41 9t-18 30l-35 193h-438l-105 -193q-24 -42 -82 -42q-35 0 -80 13q-49 13 -70 29t-21 37zM492 455h283 l-65 410h-4z" />
<glyph unicode="B" d="M119 42q0 5 2 21l187 1061q6 34 23 48.5t51 14.5h388q186 0 280 -75.5t94 -208.5q0 -95 -51 -167t-152 -115q77 -29 117.5 -86.5t40.5 -150.5q0 -112 -53 -198.5t-163 -136t-276 -49.5h-434q-28 0 -41 10t-13 32zM398 215h221q112 0 166.5 44t54.5 117q0 65 -41.5 94 t-130.5 29h-221zM486 714h201q102 0 152.5 40.5t50.5 110.5q0 56 -38 81.5t-120 25.5h-201z" />
<glyph unicode="C" d="M150 470q0 189 74 358.5t218.5 275t344.5 105.5q206 0 371 -87q42 -23 42 -70q0 -30 -16 -72q-35 -86 -82 -86q-14 0 -28 8q-70 36 -139.5 53t-149.5 17q-122 0 -206 -70.5t-125.5 -182.5t-41.5 -236q0 -132 60.5 -200t178.5 -68q80 0 155.5 17t158.5 53q14 7 29 7 q22 0 39 -19.5t32 -63.5q14 -44 14 -71t-11.5 -44.5t-35.5 -28.5q-196 -87 -402 -87q-146 0 -254.5 59t-167 170t-58.5 263z" />
<glyph unicode="D" d="M99 42q0 5 2 21l187 1061q6 34 23 48.5t51 14.5h345q148 0 253.5 -58.5t160.5 -167t55 -255.5q0 -119 -36.5 -245t-105.5 -220q-86 -118 -213 -179.5t-286 -61.5h-382q-28 0 -41 10t-13 32zM381 235h160q81 0 148 30.5t114 88.5q53 67 82 163.5t29 187.5q0 120 -57 183.5 t-170 63.5h-180z" />
<glyph unicode="E" d="M139 42q0 5 2 21l187 1061q6 34 23 48.5t51 14.5h714q26 0 37.5 -12t11.5 -43q0 -27 -7 -63q-8 -47 -19 -72.5t-26 -35t-39 -9.5h-527l-39 -223h364q26 0 37.5 -12t11.5 -43q0 -27 -7 -63q-8 -47 -19 -72.5t-25.5 -35t-38.5 -9.5h-364l-46 -259h547q26 0 37.5 -12 t11.5 -43q0 -27 -7 -63q-8 -47 -19 -72.5t-25.5 -35t-38.5 -9.5h-734q-28 0 -41 10t-13 32z" />
<glyph unicode="F" d="M159 42q0 5 2 21l187 1061q6 34 23 48.5t51 14.5h704q26 0 37.5 -12t11.5 -43q0 -27 -7 -63q-8 -47 -19 -72.5t-26 -35t-39 -9.5h-517l-50 -285h434q26 0 37.5 -12t11.5 -43q0 -27 -7 -63q-12 -69 -30 -93t-53 -24h-434l-65 -369q-6 -34 -23 -48.5t-51 -14.5h-124 q-28 0 -41 10t-13 32z" />
<glyph unicode="G" d="M110 470q0 189 74 358.5t218.5 275t344.5 105.5q219 0 391 -87q42 -23 42 -70q0 -30 -16 -72q-34 -85 -82 -85q-15 0 -28 7q-72 36 -147 53t-162 17q-122 0 -206 -70.5t-125.5 -182.5t-41.5 -236q0 -132 60.5 -200t178.5 -68q107 0 210 31l33 186h-216q-26 0 -37.5 12 t-11.5 44q0 24 6 61q12 69 30.5 93.5t53.5 24.5h403q28 0 41 -10t13 -32q0 -5 -2 -21l-81 -461q-10 -52 -46 -69q-195 -96 -417 -96q-146 0 -254.5 59t-167 170t-58.5 263z" />
<glyph unicode="H" d="M79 42q0 5 2 21l187 1061q6 34 23 48.5t51 14.5h124q28 0 41 -10t13 -32q0 -5 -2 -21l-70 -395h448l70 395q6 34 23 48.5t51 14.5h124q28 0 41 -10t13 -32q0 -5 -2 -21l-187 -1061q-6 -34 -23 -48.5t-51 -14.5h-124q-28 0 -41 10t-13 32q0 5 2 21l76 431h-448l-76 -431 q-6 -34 -23 -48.5t-51 -14.5h-124q-28 0 -41 10t-13 32z" />
<glyph unicode="I" d="M133 54q0 22 6 58q11 67 29.5 90t54.5 23h236l129 737h-256q-26 0 -37.5 11t-11.5 42q0 23 6 59q11 67 29 90t54 23h742q26 0 37.5 -11.5t11.5 -42.5q0 -23 -6 -59q-7 -46 -18 -70t-26 -33t-39 -9h-236l-129 -737h256q26 0 37 -11.5t11 -41.5q0 -22 -6 -60 q-7 -46 -17.5 -70t-25.5 -33t-39 -9h-742q-26 0 -38 11.5t-12 42.5z" />
<glyph unicode="J" d="M131 144q0 33 25 83q39 78 82 78q15 0 32 -10q66 -38 135.5 -59t134.5 -21q77 0 124 41t62 127l100 569h-316q-26 0 -37.5 12t-11.5 42q0 27 7 63q12 69 30.5 93.5t53.5 24.5h503q28 0 41 -10t13 -32q0 -5 -2 -21l-134 -761q-35 -196 -141.5 -290.5t-303.5 -94.5 q-98 0 -194 27.5t-170 77.5q-33 23 -33 61z" />
<glyph unicode="K" d="M124 42q0 5 2 21l187 1061q6 34 23 48.5t51 14.5h124q28 0 41 -10t13 -32q0 -5 -2 -21l-70 -399l516 461q29 23 56 23q37 0 96 -43q33 -24 49 -43t16 -37q0 -23 -30 -50l-424 -374l274 -538q7 -14 7 -28q0 -21 -21 -41.5t-70 -44.5q-66 -32 -98 -32q-33 0 -48 30 l-240 481l-148 -130l-52 -296q-6 -34 -23 -48.5t-51 -14.5h-124q-28 0 -41 10t-13 32z" />
<glyph unicode="L" d="M148 42q0 5 2 21l187 1061q6 34 23 48.5t51 14.5h124q28 0 41 -10t13 -32q0 -5 -2 -21l-157 -889h546q26 0 37.5 -12t11.5 -42q0 -27 -7 -63q-12 -69 -30 -93.5t-53 -24.5h-733q-28 0 -41 10t-13 32z" />
<glyph unicode="M" d="M59 42q0 13 2 21l207 1061q7 34 23.5 48.5t50.5 14.5h112q21 0 32 -7t16 -24l147 -491l338 491q12 17 25.5 24t34.5 7h117q28 0 41 -10t13 -33q0 -6 -2 -20l-167 -1061q-5 -34 -22.5 -48.5t-51.5 -14.5h-107q-28 0 -41 10t-13 33q0 6 2 20l101 614l-205 -302 q-22 -33 -46 -46.5t-66 -13.5t-62 13.5t-30 46.5l-97 319l-117 -631q-6 -34 -23 -48.5t-51 -14.5h-107q-28 0 -41 10t-13 32z" />
<glyph unicode="N" d="M79 42q0 5 2 21l187 1061q6 34 23 48.5t51 14.5h134q38 0 50 -24l335 -686h4l115 647q6 34 23 48.5t51 14.5h110q28 0 41 -10t13 -32q0 -5 -2 -21l-191 -1080q-6 -33 -33.5 -49.5t-87.5 -16.5q-44 0 -65 13t-35 42l-359 733h-4l-124 -703q-6 -34 -23 -48.5t-51 -14.5 h-110q-28 0 -41 10t-13 32z" />
<glyph unicode="O" d="M91 471q0 123 38 254t109 231q87 124 214 188.5t285 64.5q142 0 248 -60.5t163.5 -172t57.5 -260.5q0 -123 -38 -254t-109 -231q-87 -124 -214 -188.5t-285 -64.5q-142 0 -248 60.5t-163.5 172t-57.5 260.5zM353 472q0 -125 57 -191t170 -66q157 0 253 128q53 71 82 174 t29 198q0 125 -57 191t-170 66q-157 0 -253 -128q-53 -71 -82 -174t-29 -198z" />
<glyph unicode="P" d="M139 42q0 5 2 21l187 1061q6 34 23 48.5t51 14.5h347q210 0 317 -97.5t107 -271.5q0 -145 -62 -252.5t-179.5 -165.5t-281.5 -58h-210l-49 -279q-6 -34 -23 -48.5t-51 -14.5h-124q-28 0 -41 10t-13 32zM481 577h164q129 0 199.5 55t70.5 166q0 79 -52.5 116.5 t-160.5 37.5h-155z" />
<glyph unicode="Q" d="M91 471q0 123 38 254t109 231q87 124 214 188.5t285 64.5q142 0 248 -60.5t163.5 -172t57.5 -260.5q0 -123 -38 -254t-109 -231q-56 -80 -129 -135l61 -119q8 -16 8 -29q0 -20 -20.5 -39.5t-67.5 -44.5q-61 -32 -92 -32q-16 0 -26.5 7.5t-19.5 23.5l-67 130 q-69 -15 -146 -15q-142 0 -248 60.5t-163.5 172t-57.5 260.5zM353 472q0 -125 57 -191t170 -66q22 0 33 1l-74 141q-9 16 -9 31q0 19 18.5 37.5t61.5 39.5q55 29 84 29q16 0 26.5 -8t19.5 -24l74 -143l19 24q53 71 82 174t29 198q0 125 -57 191t-170 66q-157 0 -253 -128 q-53 -71 -82 -174t-29 -198z" />
<glyph unicode="R" d="M129 42q0 5 2 21l187 1061q6 34 23 48.5t51 14.5h363q196 0 296.5 -92t100.5 -256q0 -145 -70 -251t-210 -155l137 -305q7 -17 7 -28q0 -46 -93 -86q-65 -27 -95 -27q-36 0 -49 31l-166 383h-173l-59 -338q-6 -34 -23 -48.5t-51 -14.5h-124q-28 0 -41 10t-13 32zM481 636 h184q229 0 229 182q0 68 -44 101t-138 33h-175z" />
<glyph unicode="S" d="M129 129q0 31 16 76q32 88 76 88q13 0 29 -8q66 -33 156.5 -51.5t181.5 -18.5q110 0 168 36.5t58 103.5q0 36 -21.5 60t-62.5 42q-43 18 -143 41q-99 24 -162.5 46t-111.5 62q-87 72 -87 201q0 123 60 214t169 139.5t252 48.5q105 0 204.5 -19t182.5 -55q23 -10 34.5 -28 t11.5 -48q0 -28 -10 -64q-26 -90 -80 -90q-12 0 -25 5q-75 28 -164.5 45t-175.5 17q-91 0 -143.5 -35t-52.5 -96q0 -27 17.5 -45t51.5 -32q39 -16 133 -34q93 -19 158.5 -40t117.5 -59q110 -81 110 -240q0 -127 -58.5 -220t-170.5 -143t-271 -50q-109 0 -222 23t-190 64 q-36 20 -36 64z" />
<glyph unicode="T" d="M201 1006q0 27 7 63q12 69 30.5 93.5t53.5 24.5h902q26 0 37.5 -12t11.5 -43q0 -27 -7 -63q-8 -47 -19 -72.5t-26 -35t-39 -9.5h-316l-156 -889q-6 -34 -23 -48.5t-51 -14.5h-124q-28 0 -41 10t-13 32q0 5 2 21l156 889h-336q-26 0 -37.5 12t-11.5 42z" />
<glyph unicode="U" d="M141 357q0 45 9 96l118 671q6 34 23 48.5t51 14.5h124q28 0 41 -10t13 -32q0 -5 -2 -21l-119 -671q-6 -34 -6 -63q0 -88 51 -131.5t141 -43.5q104 0 172.5 59t89.5 179l119 671q6 34 23 48.5t51 14.5h124q28 0 41 -10t13 -32q0 -5 -2 -21l-126 -711 q-39 -216 -172.5 -325.5t-352.5 -109.5q-128 0 -223.5 46t-148 131.5t-52.5 201.5z" />
<glyph unicode="V" d="M203 1106q0 29 26 49.5t84 33.5q50 12 80 12q53 0 60 -41l143 -766l423 766q12 21 30.5 31t47.5 10q32 0 83 -12q100 -23 100 -67q0 -15 -10 -32l-592 -1047q-20 -36 -51.5 -50.5t-92.5 -14.5t-87 15t-33 50l-209 1047q-2 10 -2 16z" />
<glyph unicode="W" d="M111 55l73 1077q2 34 29 49.5t92 15.5q69 0 94 -14.5t23 -47.5l-51 -669l215 365q14 24 35 34t69 10t66.5 -11t23.5 -33l87 -365l187 676q8 29 31 42t70 13q10 0 36 -2q57 -4 82 -18t25 -39q0 -9 -3 -20l-304 -1063q-7 -26 -20.5 -39.5t-39.5 -19.5t-74 -6q-46 0 -71.5 7 t-37 20.5t-16.5 37.5l-101 422l-251 -422q-21 -35 -54 -50t-101 -15q-48 0 -72.5 6t-34.5 20q-8 12 -7 31v8z" />
<glyph unicode="X" d="M64 93q0 19 19 43l402 481l-233 443q-8 16 -8 30q0 22 22 42t73 42q63 27 93 27q33 0 48 -31l193 -374l306 375q26 32 65 32q40 0 101 -32q74 -39 74 -77q0 -21 -20 -44l-387 -459l244 -463q8 -16 8 -29q0 -22 -22.5 -42.5t-73.5 -42.5q-63 -27 -94 -27q-32 0 -49 31 l-202 384l-316 -389q-27 -32 -65 -32t-103 33q-75 39 -75 79z" />
<glyph unicode="Y" d="M222 1095q0 21 22 39t74 40q64 26 94 26q32 0 45 -31l198 -460l362 460q25 31 61 31t94 -27q80 -36 80 -78q0 -21 -20 -46l-485 -606l-67 -380q-6 -34 -23 -48.5t-51 -14.5h-124q-28 0 -41 10t-13 32q0 5 2 21l70 400l-272 606q-6 14 -6 26z" />
<glyph unicode="Z" d="M90 51q0 25 5 51q11 64 37 93l656 757h-480q-26 0 -37.5 12t-11.5 42q0 27 7 63q12 69 30.5 93.5t53.5 24.5h786q27 0 39 -11t12 -40q0 -20 -6 -52q-11 -58 -40 -92l-657 -757h524q26 0 37.5 -12t11.5 -43q0 -27 -7 -63q-8 -47 -19 -72.5t-25.5 -35t-38.5 -9.5h-826 q-27 0 -39 11t-12 40z" />
<glyph unicode="[" d="M170 -291q0 5 2 21l279 1579q6 34 23 48.5t51 14.5h510q26 0 37.5 -11.5t11.5 -42.5q0 -23 -6 -59q-11 -63 -30 -87.5t-53 -24.5h-323l-221 -1255h323q26 0 37.5 -11t11.5 -42q0 -23 -6 -59q-11 -67 -29 -90t-54 -23h-510q-28 0 -41 10t-13 32z" />
<glyph unicode="\" d="M322 1325q0 34 43.5 54t114.5 20q59 0 69 -43l397 -1629q2 -8 2 -13q0 -34 -43.5 -54t-114.5 -20q-59 0 -69 43l-397 1629q-2 8 -2 13z" />
<glyph unicode="]" d="M187 -280q0 22 6 60q10 62 29 87t54 25h323l221 1255h-323q-26 0 -37.5 11t-11.5 42q0 23 6 59q11 67 29 90t54 23h510q28 0 41 -10t13 -32q0 -5 -2 -21l-279 -1579q-6 -34 -23 -48.5t-51 -14.5h-510q-26 0 -37.5 11.5t-11.5 41.5z" />
<glyph unicode="^" d="M219 539q0 10 8 23l425 610q13 19 37.5 28t67.5 9q42 0 63.5 -9t27.5 -28l211 -610q2 -8 2 -12q0 -24 -27 -43.5t-67 -29.5q-33 -9 -67 -9q-28 0 -46.5 7.5t-22.5 21.5l-121 390l-253 -390q-18 -29 -84 -29q-24 0 -54 5q-43 9 -71.5 26.5t-28.5 39.5z" />
<glyph unicode="_" d="M-88 -481q0 27 10 80q9 48 16 72t15.5 32.5t21.5 8.5h1237q12 0 17.5 -7t5.5 -26q0 -27 -10 -80q-9 -48 -16 -71.5t-15.5 -32t-21.5 -8.5h-1237q-12 0 -17.5 6.5t-5.5 25.5z" />
<glyph unicode="`" d="M406 1276q0 39 40 93q57 75 103 75q17 0 33 -11l347 -255q21 -15 21 -43t-22 -63q-32 -51 -68 -51q-13 0 -23 6l-407 205q-24 12 -24 44z" />
<glyph unicode="a" d="M109 380q0 134 57 264.5t171.5 216t276.5 85.5q91 0 164.5 -44.5t110.5 -119.5l13 79q5 34 22.5 48.5t51.5 14.5h94q28 0 41 -10t13 -32q0 -5 -2 -21l-90 -511q-4 -21 -4 -42q0 -83 82 -83h5q26 0 37.5 -11t11.5 -42q0 -23 -6 -59q-11 -67 -29 -90t-54 -23h-24 q-84 0 -142 32.5t-81 100.5q-149 -155 -364 -155q-108 0 -188 51t-123.5 142t-43.5 209zM369 391q0 -84 44.5 -132.5t122.5 -48.5q86 0 149 46t96.5 118.5t33.5 147.5q0 91 -53 141.5t-138 50.5t-142.5 -50t-85 -125t-27.5 -148z" />
<glyph unicode="b" d="M106 42q0 5 2 21l209 1186q6 34 23 48.5t51 14.5h124q28 0 41 -10t13 -32q0 -5 -2 -21l-74 -416q129 113 273 113q108 0 188 -51t123.5 -142t43.5 -209q0 -134 -57 -264.5t-171.5 -216t-276.5 -85.5q-91 0 -164.5 44.5t-110.5 119.5l-13 -79q-5 -34 -22.5 -48.5 t-51.5 -14.5h-94q-28 0 -41 10t-13 32zM415 402q0 -91 53 -141.5t138 -50.5t142.5 50t85 125t27.5 148q0 84 -44.5 132.5t-122.5 48.5q-86 0 -149 -46t-96.5 -118.5t-33.5 -147.5z" />
<glyph unicode="c" d="M145 400q0 159 74.5 283.5t205.5 193.5t295 69q101 0 197 -22.5t174 -66.5q36 -20 36 -64q0 -35 -25 -85q-38 -77 -84 -77q-15 0 -33 10q-130 73 -276 73q-84 0 -152 -35.5t-107.5 -101.5t-39.5 -154q0 -100 55 -156.5t156 -56.5q73 0 153.5 19.5t157.5 55.5q14 7 28 7 q46 0 74 -87q12 -40 12 -68t-12 -46t-36 -29q-197 -84 -404 -84q-140 0 -241.5 53.5t-154.5 148.5t-53 220z" />
<glyph unicode="d" d="M129 380q0 134 57 264.5t171.5 216t276.5 85.5q78 0 143.5 -32.5t108.5 -90.5l75 426q6 34 23 48.5t51 14.5h124q28 0 41 -10t13 -32q0 -5 -2 -21l-209 -1186q-6 -34 -23 -48.5t-51 -14.5h-94q-28 0 -41 10t-13 33q0 6 2 20l10 62q-60 -68 -138.5 -107.5t-169.5 -39.5 q-108 0 -188 51t-123.5 142t-43.5 209zM389 391q0 -84 44.5 -132.5t122.5 -48.5q86 0 149 46t96.5 118.5t33.5 147.5q0 91 -53 141.5t-138 50.5t-142.5 -50t-85 -125t-27.5 -148z" />
<glyph unicode="e" d="M140 379q0 150 66 279.5t196 208.5t312 79q116 0 203.5 -39.5t135 -110.5t47.5 -162q0 -110 -59.5 -178.5t-188.5 -81.5l-455 -45q16 -61 63.5 -92.5t123.5 -31.5q174 0 365 55q12 4 25 4q23 0 36 -19.5t23 -68.5q6 -31 6 -54q0 -31 -13 -47.5t-42 -25.5 q-108 -34 -221.5 -52.5t-218.5 -18.5q-127 0 -218.5 51.5t-138.5 142.5t-47 207zM410 516l354 35q42 4 60 24t18 49q0 41 -39 68t-115 27q-101 0 -173.5 -51t-104.5 -152z" />
<glyph unicode="f" d="M-97 -261q0 31 28 79q23 40 44 59.5t43 19.5q12 0 28 -8q109 -62 185 -62q60 0 96.5 34t50.5 112l117 666h-183q-26 0 -37.5 12t-11.5 43q0 23 6 57q11 65 29.5 89t53.5 24h183l13 73q33 189 132.5 284.5t271.5 95.5q147 0 294 -57q46 -18 46 -67q0 -27 -15 -69 q-17 -46 -35.5 -65.5t-41.5 -19.5q-12 0 -24 4q-129 37 -222 37q-63 0 -104 -39t-55 -117l-11 -60h312q26 0 37.5 -12.5t11.5 -43.5q0 -22 -6 -57q-11 -65 -29.5 -88.5t-53.5 -23.5h-311l-119 -679q-33 -185 -129 -277.5t-264 -92.5q-75 0 -153.5 26t-145.5 70 q-31 21 -31 53z" />
<glyph unicode="g" d="M60 -284q0 28 18 78q19 51 39 73t43 22q11 0 26 -5q71 -26 148 -41.5t140 -15.5q123 0 187 48t83 146l20 102q-60 -50 -131 -77.5t-144 -27.5q-112 0 -193 48.5t-123 134t-42 194.5q0 135 56.5 262t170.5 208t276 81q91 0 164.5 -44.5t110.5 -119.5l13 79q5 34 22.5 48.5 t51.5 14.5h94q28 0 41 -10t13 -32q0 -5 -2 -21l-151 -860q-35 -198 -164.5 -304.5t-362.5 -106.5q-79 0 -173 17.5t-189 51.5q-21 8 -31.5 21.5t-10.5 35.5zM392 412q0 -85 44 -128.5t123 -43.5q88 0 150.5 42t94.5 109.5t32 142.5q0 89 -53 134.5t-139 45.5 q-82 0 -139 -44.5t-85 -114t-28 -143.5z" />
<glyph unicode="h" d="M109 42q0 5 2 21l209 1186q6 34 23 48.5t51 14.5h124q28 0 41 -10t13 -32q0 -5 -2 -21l-82 -466q74 78 160 120.5t178 42.5q86 0 150.5 -37t99.5 -102t35 -147q0 -34 -6 -70l-92 -527q-6 -34 -23 -48.5t-51 -14.5h-124q-28 0 -41 10t-13 32q0 5 2 21l86 488q5 30 5 49 q0 109 -114 109q-64 0 -134.5 -49t-123.5 -130t-69 -172l-52 -295q-6 -34 -23 -48.5t-51 -14.5h-124q-28 0 -41 10t-13 32z" />
<glyph unicode="i" d="M253 752q0 23 6 59q11 67 29 90t54 23h380q28 0 41 -10t13 -32q0 -5 -2 -21l-86 -490q-5 -32 -5 -53q0 -53 24.5 -78t72.5 -25q87 0 190 27q14 3 24 3q27 0 42.5 -22.5t25.5 -69.5q7 -35 7 -54q0 -27 -12 -44.5t-42 -27.5q-142 -49 -279 -49q-146 0 -226.5 77t-80.5 217 q0 45 9 96l57 331h-193q-26 0 -37.5 11t-11.5 42zM571 1123q0 8 1 13l29 164q6 35 34.5 49t98.5 14q63 0 90.5 -12t27.5 -38q0 -8 -1 -13l-29 -164q-6 -35 -35 -49t-99 -14q-64 0 -90.5 11.5t-26.5 38.5z" />
<glyph unicode="j" d="M63 -259q0 30 25 81q22 44 42.5 63t41.5 19q12 0 32 -9q61 -31 124.5 -49.5t112.5 -18.5q65 0 105 38t54 118l125 716h-383q-26 0 -37.5 11t-11.5 42q0 23 6 59q11 67 29 90t54 23h570q28 0 41 -10t13 -32q0 -5 -2 -21l-159 -901q-33 -188 -131 -279t-271 -91 q-166 0 -343 95q-37 19 -37 56zM805 1143q0 8 1 13l29 164q6 35 34.5 49t98.5 14q63 0 90.5 -12t27.5 -38q0 -8 -1 -13l-29 -164q-6 -35 -35 -49t-99 -14q-64 0 -90.5 11.5t-26.5 38.5z" />
<glyph unicode="k" d="M142 42q0 5 2 21l209 1186q6 34 23 48.5t51 14.5h124q28 0 41 -10t13 -32q0 -5 -2 -21l-116 -659l446 326q29 21 58 21q47 0 96 -48q57 -54 57 -94q0 -32 -33 -54l-319 -225l230 -357q17 -26 17 -46t-19 -40.5t-63 -48.5q-61 -38 -96 -38q-29 0 -48 28l-226 358 l-158 -111l-35 -198q-6 -34 -23 -48.5t-51 -14.5h-124q-28 0 -41 10t-13 32z" />
<glyph unicode="l" d="M252 1140q0 23 6 59q11 67 29 90t54 23h420q28 0 41 -10t13 -32q0 -5 -2 -21l-155 -878q-5 -32 -5 -53q0 -53 24.5 -78t72.5 -25q87 0 190 27q14 3 24 3q27 0 42.5 -22.5t25.5 -69.5q7 -35 7 -54q0 -27 -12 -44.5t-42 -27.5q-142 -49 -279 -49q-146 0 -226.5 77 t-80.5 217q0 45 9 96l126 719h-233q-26 0 -37.5 11t-11.5 42z" />
<glyph unicode="m" d="M27 42q0 5 2 21l140 798q6 34 23 48.5t51 14.5h74q28 0 41 -10t13 -32q0 -5 -2 -21l-21 -124q118 209 256 209q76 0 114.5 -52t45.5 -151q55 99 126.5 151t143.5 52q75 0 119 -53.5t44 -156.5q0 -49 -10 -103l-100 -570q-6 -34 -23 -48.5t-51 -14.5h-124q-28 0 -41 10 t-13 32q0 5 2 21l92 523q5 32 5 49q0 54 -39 54q-47 0 -87.5 -73t-64.5 -213l-60 -340q-6 -34 -23 -48.5t-51 -14.5h-124q-28 0 -41 10t-13 32q0 5 2 21l92 523q5 32 5 49q0 54 -39 54q-47 0 -87.5 -73t-64.5 -213l-60 -340q-6 -34 -23 -48.5t-51 -14.5h-124q-28 0 -41 10 t-13 32z" />
<glyph unicode="n" d="M109 42q0 5 2 21l140 798q6 34 23 48.5t51 14.5h94q28 0 41 -10t13 -32q0 -5 -2 -21l-21 -125q80 99 175.5 154.5t200.5 55.5q86 0 150.5 -37t99.5 -102t35 -147q0 -34 -6 -70l-92 -527q-6 -34 -23 -48.5t-51 -14.5h-124q-28 0 -41 10t-13 32q0 5 2 21l86 488q5 30 5 49 q0 109 -114 109q-64 0 -134.5 -49t-123.5 -130t-69 -172l-52 -295q-6 -34 -23 -48.5t-51 -14.5h-124q-28 0 -41 10t-13 32z" />
<glyph unicode="o" d="M130 387q0 136 59 264t182.5 211.5t306.5 83.5q137 0 237 -52t152.5 -144.5t52.5 -212.5q0 -136 -59 -264t-182.5 -211.5t-306.5 -83.5q-137 0 -237 52t-152.5 144.5t-52.5 212.5zM391 406q0 -91 53 -143.5t146 -52.5q82 0 143 42.5t93.5 113t32.5 152.5q0 91 -53 143.5 t-146 52.5q-82 0 -143 -42.5t-93.5 -113t-32.5 -152.5z" />
<glyph unicode="p" d="M37 -346q0 5 2 21l209 1186q6 34 23 48.5t51 14.5h94q28 0 41 -10t13 -33q0 -6 -2 -20l-10 -62q60 68 138.5 107.5t169.5 39.5q108 0 188 -51t123.5 -142t43.5 -209q0 -134 -57 -264.5t-171.5 -216t-276.5 -85.5q-78 0 -143.5 32.5t-108.5 90.5l-75 -426 q-6 -34 -23 -48.5t-51 -14.5h-124q-28 0 -41 10t-13 32zM415 402q0 -91 53 -141.5t138 -50.5t142.5 50t85 125t27.5 148q0 84 -44.5 132.5t-122.5 48.5q-86 0 -149 -46t-96.5 -118.5t-33.5 -147.5z" />
<glyph unicode="q" d="M129 380q0 134 57 264.5t171.5 216t276.5 85.5q91 0 164.5 -44.5t110.5 -119.5l13 79q5 34 22.5 48.5t51.5 14.5h94q28 0 41 -10t13 -32q0 -5 -2 -21l-209 -1186q-6 -34 -23 -48.5t-51 -14.5h-124q-28 0 -41 10t-13 32q0 5 2 21l74 416q-129 -113 -273 -113 q-108 0 -188 51t-123.5 142t-43.5 209zM389 391q0 -84 44.5 -132.5t122.5 -48.5q86 0 149 46t96.5 118.5t33.5 147.5q0 91 -53 141.5t-138 50.5t-142.5 -50t-85 -125t-27.5 -148z" />
<glyph unicode="r" d="M196 42q0 5 2 21l140 798q6 34 23 48.5t51 14.5h104q28 0 41 -10t13 -32q0 -5 -2 -21l-30 -171q81 120 194 188t231 68q76 0 146 -30q24 -10 35.5 -28.5t11.5 -45.5q0 -30 -14 -75q-36 -108 -92 -108q-8 0 -19 3q-52 16 -108 16q-100 0 -193 -50t-157.5 -138.5 t-84.5 -199.5l-40 -227q-6 -34 -23 -48.5t-51 -14.5h-124q-28 0 -41 10t-13 32z" />
<glyph unicode="s" d="M129 116q0 27 11 60q14 44 35.5 64t46.5 20q11 0 26 -5q171 -65 339 -65q104 0 153.5 24t49.5 67q0 21 -18.5 34t-54.5 21q-35 8 -117 17q-99 10 -167 24t-121 45q-106 61 -106 188q0 104 53 180t149.5 116t223.5 40q104 0 212.5 -18.5t205.5 -53.5q46 -16 46 -66 q0 -24 -12 -60q-14 -43 -36 -63.5t-47 -20.5q-11 0 -26 5q-170 65 -338 65q-84 0 -127.5 -23.5t-43.5 -67.5q0 -36 70 -51q28 -6 121 -16q94 -8 163 -20.5t123 -41.5q111 -60 111 -185q0 -105 -52.5 -184t-156.5 -123t-253 -44q-104 0 -212.5 18.5t-205.5 53.5 q-45 16 -45 66z" />
<glyph unicode="t" d="M153 694q0 23 6 57q11 65 29.5 89t53.5 24h193l50 282q6 34 39 48.5t104 14.5q61 0 85 -11t24 -36q0 -4 -2 -16l-50 -282h371q26 0 37.5 -12.5t11.5 -43.5q0 -22 -6 -57q-11 -65 -29.5 -88.5t-53.5 -23.5h-371l-47 -268q-5 -28 -5 -50q0 -106 105 -106q91 0 261 73 q15 7 30 7q23 0 41 -20t34 -65q14 -40 14 -64q0 -23 -11.5 -38t-35.5 -26q-107 -50 -200.5 -77t-174.5 -27q-151 0 -234 76.5t-83 218.5q0 44 9 95l48 271h-194q-26 0 -37.5 12t-11.5 43z" />
<glyph unicode="u" d="M139 264q0 34 6 70l92 527q6 34 23 48.5t51 14.5h124q28 0 41 -10t13 -32q0 -5 -2 -21l-86 -488q-5 -30 -5 -49q0 -109 114 -109q64 0 134.5 49t123.5 130t69 172l52 295q6 34 23 48.5t51 14.5h124q28 0 41 -10t13 -32q0 -5 -2 -21l-140 -798q-6 -34 -23 -48.5t-51 -14.5 h-94q-28 0 -41 10t-13 32q0 5 2 21l21 125q-80 -99 -175.5 -154.5t-200.5 -55.5q-86 0 -150.5 37t-99.5 102t-35 147z" />
<glyph unicode="v" d="M185 854q0 27 26.5 44.5t84.5 27.5q46 8 71 8q31 0 47 -10.5t22 -33.5l145 -592l356 602q24 41 75 41q32 0 85 -15q51 -15 75 -32.5t24 -39.5q0 -16 -12 -34l-483 -777q-22 -35 -58 -50t-106 -15t-100.5 15t-39.5 50l-210 793q-2 6 -2 18z" />
<glyph unicode="w" d="M129 855q-1 36 23.5 53.5t87.5 21.5q13 1 35 1q46 0 64.5 -11.5t18.5 -41.5l-3 -505l205 337q17 29 41 43t65 14q43 0 62.5 -12t25.5 -38l82 -344l186 515q9 25 28.5 37t51.5 12q29 0 61 -7q49 -9 70.5 -23.5t21.5 -37.5q0 -13 -6 -28l-297 -798q-13 -36 -42 -50.5 t-90 -14.5q-60 0 -89 15.5t-37 49.5l-84 352l-212 -352q-21 -34 -55.5 -49.5t-94.5 -15.5t-83.5 14.5t-24.5 50.5z" />
<glyph unicode="x" d="M94 106q0 27 29 56l325 317l-209 283q-18 24 -18 45q0 22 20 44.5t64 48.5q64 38 99 38q30 0 49 -28l193 -277l269 277q27 29 69 29q46 0 99 -37q64 -45 64 -84q0 -27 -30 -56l-313 -306l217 -294q19 -25 19 -45q0 -42 -84 -92q-66 -39 -100 -39q-29 0 -49 28l-201 289 l-281 -289q-28 -30 -69 -30q-44 0 -97 37q-65 44 -65 85z" />
<glyph unicode="y" d="M185 854q0 27 26.5 44.5t84.5 27.5q46 8 71 8q31 0 47 -10.5t22 -33.5l145 -592l356 602q24 41 75 41q32 0 85 -15q51 -15 75 -32.5t24 -39.5q0 -16 -12 -34l-737 -1184q-13 -21 -31 -31t-46 -10q-32 0 -83 15t-75.5 32.5t-24.5 39.5q0 14 13 34l204 299l-217 821 q-2 6 -2 18z" />
<glyph unicode="z" d="M95 56q0 22 4 46q4 28 13 46t30 36l567 515h-455q-26 0 -37.5 12t-11.5 42q0 22 6 58q11 66 29 89.5t53 23.5h799q28 0 39.5 -12t11.5 -45q0 -18 -3 -45t-12 -45t-30 -37l-568 -515h476q26 0 37.5 -12t11.5 -42q0 -22 -6 -58q-11 -66 -29 -89.5t-53 -23.5h-819 q-28 0 -40.5 12t-12.5 44z" />
<glyph unicode="{" d="M185 486q0 22 6 56q7 44 17.5 66.5t25 31t38.5 8.5q121 0 188.5 51t74.5 147l9 126q10 141 72.5 229t180.5 129.5t300 41.5q26 0 38 -11t12 -41q0 -20 -6 -53q-8 -46 -18.5 -69t-25 -31t-38.5 -8q-94 0 -149.5 -22.5t-82.5 -68t-35 -118.5l-11 -104 q-12 -116 -79.5 -189.5t-205.5 -109.5l-1 -10q185 -57 185 -235q0 -29 -7 -73l-18 -104q-9 -56 -9 -86q0 -80 47.5 -119.5t160.5 -39.5q27 0 38.5 -10t11.5 -39q0 -22 -6 -58q-11 -62 -29 -84t-53 -22q-216 0 -318.5 80.5t-102.5 242.5q0 62 13 130l21 113q5 24 5 53 q0 149 -199 149q-26 0 -38 11t-12 40z" />
<glyph unicode="|" d="M365 -305q0 8 1 13l287 1623q6 33 41.5 48t101.5 15q57 0 82.5 -11.5t25.5 -38.5q0 -8 -1 -13l-287 -1623q-6 -33 -41.5 -48t-101.5 -15q-57 0 -82.5 11.5t-25.5 38.5z" />
<glyph unicode="}" d="M101 -281q0 20 6 53q8 46 18.5 69t25 31t38.5 8q92 0 148 24t84 71.5t37 123.5l17 138q15 118 81 192.5t204 106.5l1 10q-94 30 -136 93t-42 156q0 27 3 55l7 64q5 47 5 76q0 58 -18 94.5t-62.5 55.5t-123.5 19q-27 0 -38.5 10t-11.5 39q0 22 6 58q11 62 29 84t53 22 q149 0 240 -36.5t133 -110t42 -187.5q0 -47 -8 -109l-10 -79q-3 -22 -3 -44q0 -77 46 -117.5t149 -40.5q26 0 38 -11t12 -40q0 -21 -6 -56q-7 -44 -17.5 -66.5t-25 -31t-38.5 -8.5q-120 0 -187 -53.5t-77 -154.5l-14 -150q-14 -151 -76.5 -240.5t-178.5 -129.5t-300 -40 q-26 0 -38 11t-12 41z" />
<glyph unicode="~" d="M161 552q0 17 13 38q59 87 128.5 131t159.5 44q53 0 100 -17.5t113 -51.5q53 -28 90 -42.5t73 -14.5q39 0 69.5 16t62.5 50q18 19 40 19q33 0 74 -37q47 -41 47 -78q0 -17 -13 -38q-59 -87 -128.5 -131t-159.5 -44q-54 0 -102.5 18t-112.5 52q-54 28 -90 42t-71 14 q-39 0 -69.5 -16t-62.5 -50q-18 -19 -40 -19q-33 0 -74 37q-47 41 -47 78z" />
<glyph unicode="&#xa0;" />
<glyph unicode="&#xa1;" d="M310 -316q0 9 3 21l173 657q15 58 109 58t89 -58l-59 -657q-4 -50 -50 -50h-230q-35 0 -35 29zM471 648q0 6 1 9l38 214q6 34 42.5 48.5t117.5 14.5q77 0 114 -13t37 -41q0 -6 -1 -9l-38 -214q-6 -34 -42.5 -48.5t-117.5 -14.5q-77 0 -114 13t-37 41z" />
<glyph unicode="&#xa2;" d="M170 540q0 148 64.5 266t179.5 190.5t262 86.5l29 166q6 35 27.5 49t76.5 14q47 0 65.5 -10t18.5 -34q0 -5 -2 -19l-30 -171q146 -19 255 -81q36 -20 36 -64q0 -35 -25 -85q-38 -77 -84 -77q-15 0 -33 10q-92 51 -190 66l-86 -490q110 16 223 68q14 7 28 7q46 0 74 -87 q12 -40 12 -68t-12 -46t-36 -29q-161 -69 -331 -81l-32 -183q-6 -35 -28 -49t-77 -14q-46 0 -64.5 10t-18.5 34q0 5 2 19l33 190q-107 20 -182.5 76.5t-115 142.5t-39.5 193zM435 563q0 -73 29.5 -123.5t85.5 -72.5l83 472q-90 -28 -144 -100t-54 -176z" />
<glyph unicode="&#xa3;" d="M188 127q0 25 8.5 43.5t29.5 33.5q87 65 129.5 125t50.5 136h-142q-26 0 -38 10.5t-12 40.5q0 26 7 61q8 47 19 71t25.5 33t38.5 9h76q-11 62 -11 112q0 119 49 211.5t142.5 144t222.5 51.5q78 0 149 -16t126 -45q37 -20 37 -59q0 -31 -20 -75q-36 -82 -77 -82 q-11 0 -19 4q-102 46 -199 46q-79 0 -122 -47t-43 -136q0 -27 3.5 -50t10.5 -59h287q26 0 38 -11t12 -41q0 -26 -7 -61q-8 -47 -18.5 -71t-25.5 -32.5t-39 -8.5h-234q-10 -68 -38.5 -127t-79.5 -113h400q26 0 38 -11t12 -41q0 -26 -7 -61q-8 -47 -18.5 -71t-25 -32.5 t-38.5 -8.5h-644q-22 0 -37.5 40.5t-15.5 86.5z" />
<glyph unicode="&#xa4;" d="M79 251q0 19 24 40l160 135q-24 63 -24 141q0 69 20.5 134t59.5 121l-103 122q-18 21 -18 37t14.5 35.5t48.5 47.5q57 49 87 49q19 0 40 -24l103 -123q91 40 194 40q117 0 206 -53l159 133q20 17 37 17q16 0 35.5 -14.5t47.5 -48.5q48 -56 48 -85q0 -20 -24 -41 l-158 -133q25 -69 25 -144q0 -69 -20.5 -134.5t-59.5 -120.5l103 -123q17 -20 17 -37q0 -16 -14.5 -35.5t-48.5 -47.5q-56 -48 -85 -48q-20 0 -41 24l-103 123q-91 -40 -194 -40q-119 0 -208 54l-159 -133q-21 -18 -37 -18t-35.5 14.5t-47.5 48.5q-49 57 -49 87zM461 579 q0 -73 46.5 -119t123.5 -46q64 0 111.5 29.5t72 78t24.5 103.5q0 73 -46.5 119t-123.5 46q-64 0 -111.5 -29.5t-72 -78t-24.5 -103.5z" />
<glyph unicode="&#xa5;" d="M130 320q0 22 6 59q8 47 19 71t25.5 33t38.5 9h278l3 19l-51 114h-226q-27 0 -38.5 11t-11.5 42q0 22 6 59q8 47 19 71t25.5 33t38.5 9h86l-98 219q-6 14 -6 26q0 21 22 39t74 40q64 26 94 26q32 0 45 -31l177 -411l323 411q25 31 61 31q35 0 94 -27q80 -36 80 -78 q0 -21 -20 -46l-160 -199h90q26 0 38 -11t12 -41q0 -26 -7 -61q-8 -47 -18.5 -71t-25 -32.5t-38.5 -8.5h-231l-106 -133h293q26 0 38 -11t12 -41q0 -26 -7 -61q-8 -47 -18.5 -71t-25 -32.5t-38.5 -8.5h-294l-36 -204q-6 -34 -23 -48.5t-51 -14.5h-124q-28 0 -41 10t-13 32 q0 5 2 21l36 204h-278q-27 0 -38.5 11t-11.5 42z" />
<glyph unicode="&#xa6;" d="M365 -305q0 8 1 13l110 623q6 33 41.5 48t101.5 15q57 0 82.5 -11.5t25.5 -38.5q0 -8 -1 -13l-110 -623q-6 -33 -41.5 -48t-101.5 -15q-57 0 -82.5 11.5t-25.5 38.5zM542 695q0 8 1 13l110 623q6 33 41.5 48t101.5 15q57 0 82.5 -11.5t25.5 -38.5q0 -8 -1 -13l-110 -623 q-6 -33 -41.5 -48t-101.5 -15q-57 0 -82.5 11.5t-25.5 38.5z" />
<glyph unicode="&#xa7;" d="M152 -177q0 17 5 50q11 60 28.5 81t52.5 21h318q45 0 68.5 20t23.5 54q0 30 -16 51.5t-56 43.5l-209 115q-79 43 -118.5 105.5t-39.5 149.5q0 182 163 290q-9 35 -9 73q0 81 33.5 151.5t105.5 114.5t182 44h370q26 0 38 -11.5t12 -41.5q0 -17 -5 -50q-11 -60 -28.5 -81 t-52.5 -21h-318q-45 0 -68.5 -20t-23.5 -54q0 -30 16 -51.5t56 -43.5l209 -115q79 -43 118.5 -105.5t39.5 -149.5q0 -182 -163 -290q9 -34 9 -73q0 -81 -33.5 -151.5t-105.5 -114.5t-182 -44h-370q-26 0 -38 11.5t-12 41.5zM445 549q0 -34 15.5 -58t53.5 -44l232 -126 l21 -12q44 41 44 99q0 34 -15.5 58t-53.5 44l-232 126l-21 12q-44 -41 -44 -99z" />
<glyph unicode="&#xa8;" d="M398 1123q0 8 1 13l29 164q6 35 34.5 49t98.5 14q63 0 90.5 -12t27.5 -38q0 -8 -1 -13l-29 -164q-6 -35 -35 -49t-99 -14q-64 0 -90.5 11.5t-26.5 38.5zM838 1123q0 8 1 13l29 164q6 35 34.5 49t98.5 14q63 0 90.5 -12t27.5 -38q0 -8 -1 -13l-29 -164q-6 -35 -35 -49 t-99 -14q-64 0 -90.5 11.5t-26.5 38.5z" />
<glyph unicode="&#xa9;" d="M55 493q0 182 86.5 347t243 267t357.5 102q148 0 261 -66.5t174.5 -183.5t61.5 -265q0 -182 -86 -347t-242.5 -267t-357.5 -102q-148 0 -261.5 67t-175 184.5t-61.5 263.5zM206 495q0 -107 42.5 -189.5t124 -128.5t193.5 -46q152 0 271 80t185 209.5t66 271.5 q0 108 -42.5 190.5t-123.5 128t-193 45.5q-152 0 -271.5 -80t-185.5 -209.5t-66 -271.5zM336 528q0 77 29 159.5t86 140.5q52 53 122 81t151 28q47 0 93 -11t85 -32q30 -17 30 -44q0 -20 -16 -58q-26 -60 -61 -60q-5 0 -19 4q-75 28 -133 28q-79 0 -129 -53 q-28 -30 -43.5 -73t-15.5 -89q0 -61 33.5 -94t94.5 -33q57 0 143 28q11 4 20 4q15 0 23.5 -13.5t17.5 -45.5q8 -29 8 -47q0 -20 -9 -33t-30 -23q-46 -21 -96.5 -32t-97.5 -11q-84 0 -149 34t-101 97t-36 148z" />
<glyph unicode="&#xaa;" d="M301 774q0 103 44.5 203.5t133.5 166t214 65.5q71 0 127 -32t84 -88l10 62q4 26 27.5 37.5t67.5 11.5q41 0 59 -9t18 -30q0 -6 -1 -10l-72 -411q-3 -18 -3 -33q0 -58 57 -58h4q19 0 27.5 -8.5t8.5 -31.5q0 -19 -4 -43q-8 -50 -21.5 -67t-40.5 -17h-18q-65 0 -108 29.5 t-56 90.5q-112 -137 -273 -137q-88 0 -152.5 41t-98.5 111t-34 157zM505 783q0 -67 33.5 -105t93.5 -38q66 0 115 36t75 92t26 115q0 72 -41 112t-106 40t-109.5 -40t-65.5 -98.5t-21 -113.5z" />
<glyph unicode="&#xab;" d="M105 565q0 15 12 27l320 339q15 15 35 15q36 0 94 -49q55 -46 55 -86q0 -22 -17 -39l-228 -232l178 -274q10 -17 10 -30q0 -44 -74 -85q-54 -30 -88 -30q-30 0 -45 24l-245 397q-7 12 -7 23zM625 545q0 15 12 27l340 359q15 15 35 15q36 0 94 -49q55 -46 55 -86 q0 -22 -17 -39l-248 -252l158 -254q10 -17 10 -31q0 -43 -74 -84q-54 -30 -88 -30q-30 0 -45 24l-225 377q-7 12 -7 23z" />
<glyph unicode="&#xac;" d="M173 673q0 23 6 60q7 46 17.5 70t25.5 33t39 9h850q29 0 42.5 -10.5t13.5 -34.5q0 -4 -2 -20l-83 -472q-6 -34 -39 -48.5t-104 -14.5q-61 0 -85 11t-24 36q0 4 2 16l55 312h-665q-26 0 -37.5 11t-11.5 42z" />
<glyph unicode="&#xad;" horiz-adv-x="0" />
<glyph unicode="&#xae;" d="M194 737q0 152 72 289.5t202.5 222.5t297.5 85q124 0 218 -55.5t145 -153t51 -220.5q0 -151 -71.5 -289t-202 -223t-297.5 -85q-124 0 -218 56t-145.5 153.5t-51.5 219.5zM319 739q0 -89 35.5 -157.5t103.5 -107t162 -38.5q126 0 225.5 67t154.5 174.5t55 225.5 q0 90 -35.5 158.5t-103.5 106.5t-161 38q-126 0 -225.5 -67t-155 -174.5t-55.5 -225.5zM442 586q0 6 2 20l75 432q5 28 19.5 40.5t42.5 12.5h180q89 0 137 -48.5t48 -127.5q0 -61 -34 -110.5t-102 -79.5l55 -78q11 -16 11 -28q0 -25 -48 -52q-33 -20 -52 -20t-35 25l-74 124 h-66l-16 -90q-5 -30 -21 -42t-60 -12q-35 0 -48.5 8t-13.5 26zM624 825h82q48 0 69.5 23.5t21.5 52.5q0 24 -16 38t-45 14h-90z" />
<glyph unicode="&#xaf;" d="M410 1120q0 21 6 52q7 42 17.5 64t25 30.5t38.5 8.5h542q27 0 39 -11t12 -40q0 -20 -6 -52q-7 -42 -17.5 -64t-25 -30t-38.5 -8h-542q-27 0 -39 10.5t-12 39.5z" />
<glyph unicode="&#xb0;" d="M303 855q0 98 44 179t124.5 128t185.5 47q89 0 156 -37t103.5 -103t36.5 -150q0 -98 -44 -179t-124.5 -128t-185.5 -47q-89 0 -156 37t-103.5 103t-36.5 150zM516 870q0 -42 27 -68t72 -26q54 0 89.5 36.5t35.5 91.5q0 42 -27 68t-72 26q-54 0 -89.5 -36.5t-35.5 -91.5z " />
<glyph unicode="&#xb1;" d="M112 52q0 16 7 60q8 47 19 71t25.5 33t38.5 9h762q26 0 38 -11t12 -41q0 -26 -7 -61q-8 -47 -18.5 -71t-25 -32.5t-38.5 -8.5h-762q-27 0 -39 10.5t-12 41.5zM222 671q0 26 7 61q8 47 18.5 71t25 33t38.5 9h268l39 218q4 24 15 37t36.5 19.5t72.5 6.5q59 0 81 -10t22 -34 q0 -5 -2 -19l-39 -218h269q26 0 38 -11.5t12 -42.5q0 -21 -6 -59q-8 -47 -18.5 -71t-25.5 -32.5t-39 -8.5h-269l-39 -219q-4 -24 -15 -37t-36 -19.5t-72 -6.5q-59 0 -81.5 10t-22.5 35q0 4 2 18l39 219h-268q-26 0 -38 10.5t-12 40.5z" />
<glyph unicode="&#xb2;" d="M327 542q0 20 4 41q10 56 46 82l347 243q78 54 106.5 87t28.5 77q0 38 -26 61t-74 23q-99 0 -227 -53q-13 -5 -22 -5q-41 0 -58 67q-6 24 -6 42q0 47 42 65q69 30 147 46t156 16q86 0 147 -30.5t93 -84.5t32 -125q0 -64 -26 -113.5t-72.5 -91t-125.5 -95.5l-200 -137h341 q20 0 29 -9.5t9 -33.5q0 -14 -5 -44q-9 -50 -23 -68.5t-40 -18.5h-583q-40 0 -40 59z" />
<glyph unicode="&#xb3;" d="M325 568q0 24 12 55q12 33 30 51t35 18q7 0 11 -2q51 -23 110 -37.5t113 -14.5q165 0 165 108q0 33 -24 51.5t-69 18.5h-123q-19 0 -28 11t-9 36q0 19 4 39q8 46 23.5 66t39.5 20h104q73 0 107 28t34 70q0 36 -29 55.5t-88 19.5q-104 0 -229 -48q-13 -5 -22 -5 q-40 0 -56 66q-6 26 -6 43q0 47 41 63q67 26 144.5 40t151.5 14q95 0 161.5 -28t100.5 -78t34 -116q0 -152 -156 -215q49 -23 76 -64t27 -94q0 -71 -33.5 -132.5t-117.5 -101.5t-225 -40q-74 0 -150.5 15t-128.5 39q-30 14 -30 49z" />
<glyph unicode="&#xb4;" d="M538 1135q0 28 21 43l347 255q16 11 33 11q46 0 103 -75q40 -54 40 -93q0 -32 -24 -44l-407 -205q-10 -6 -23 -6q-36 0 -68 51q-22 35 -22 63z" />
<glyph unicode="&#xb6;" d="M170 751q0 118 54.5 217.5t165 159t268.5 59.5h556q26 0 37.5 -11.5t11.5 -42.5q0 -23 -6 -59q-7 -46 -18 -70t-26 -33t-39 -9h-66l-231 -1309q-6 -33 -36 -48t-87 -15q-49 0 -69 10.5t-20 35.5q0 5 2 17l231 1309h-160l-231 -1309q-6 -33 -36 -48t-87 -15 q-49 0 -69 10.5t-20 35.5q0 5 2 17l139 787q-125 20 -195.5 103t-70.5 208z" />
<glyph unicode="&#xb7;" d="M458 445q0 5 1 8l45 254q6 34 44 48.5t124 14.5q83 0 123 -13t40 -42q0 -5 -1 -8l-45 -254q-6 -34 -44 -48.5t-124 -14.5q-83 0 -123 13t-40 42z" />
<glyph unicode="&#xb8;" d="M222 -394q0 17 10 49q10 31 26 47t33 16q4 0 12 -2q83 -29 158 -29q54 0 80.5 14t26.5 38q0 46 -89 46q-9 0 -19 -1t-21 -1h-6q-27 0 -27 26q0 7 1 11l36 208h185l-19 -111q88 -8 135.5 -51.5t47.5 -117.5q0 -100 -76.5 -160t-228.5 -60q-141 0 -240 35q-25 9 -25 43z " />
<glyph unicode="&#xb9;" d="M339 528q0 19 4 40q8 45 23 65t43 20h178l77 437l-148 -70q-18 -8 -30 -8q-17 0 -31 14t-27 46q-12 30 -12 50q0 18 10 30.5t31 22.5l341 151q18 8 35 8h3q24 0 40 -12t16 -35q0 -8 -1 -12l-109 -622h191q21 0 31 -11.5t10 -36.5q0 -9 -4 -37q-8 -45 -23.5 -65t-43.5 -20 h-564q-21 0 -30.5 11t-9.5 34z" />
<glyph unicode="&#xba;" d="M308 780q0 107 48.5 205.5t147.5 161t241 62.5q101 0 175.5 -40t114.5 -111.5t40 -163.5q0 -104 -47.5 -202.5t-146 -162.5t-243.5 -64q-102 0 -176.5 40t-114 111.5t-39.5 163.5zM513 790q0 -70 38.5 -110t105.5 -40q64 0 112.5 34t74 90t25.5 119q0 70 -38 111t-105 41 q-64 0 -112.5 -34.5t-74.5 -90.5t-26 -120z" />
<glyph unicode="&#xbb;" d="M114 257q0 22 17 39l248 252l-158 254q-10 17 -10 31q0 43 74 84q54 30 88 30q30 0 45 -24l225 -377q7 -12 7 -23q0 -15 -12 -27l-340 -359q-15 -15 -35 -15q-36 0 -94 49q-55 46 -55 86zM654 257q0 22 17 39l228 232l-178 274q-10 17 -10 30q0 44 74 85q54 30 88 30 q30 0 45 -24l245 -397q7 -12 7 -23q0 -15 -12 -27l-320 -339q-15 -15 -35 -15q-36 0 -94 49q-55 46 -55 86z" />
<glyph unicode="&#xbc;" d="M56 722q0 14 3 33q7 37 20 54t36 17h148l65 364l-124 -58q-16 -7 -25 -7q-14 0 -26 11.5t-23 38.5q-10 27 -10 41q0 16 8.5 26.5t26.5 18.5l284 126q14 7 32 7q20 0 33.5 -10.5t13.5 -29.5q0 -7 -1 -10l-91 -518h159q34 0 34 -40q0 -13 -3 -31q-7 -38 -20 -54.5 t-36 -16.5h-471q-17 0 -25 9t-8 29zM66 280q0 26 25 39l1029 521q12 5 21 5q26 0 48 -45q14 -28 14 -50q0 -26 -25 -39l-1029 -521q-12 -5 -21 -5q-26 0 -48 45q-14 28 -14 50zM550 30q0 16 5.5 28t18.5 25l381 383q34 37 106 37q45 0 66.5 -12.5t17.5 -33.5l-67 -378h76 q18 0 26 -10t8 -31q0 -12 -3 -30q-7 -37 -20.5 -54t-36.5 -17h-74l-22 -121q-4 -21 -21.5 -30.5t-59.5 -9.5q-48 0 -68 10t-16 30l21 121h-291q-20 0 -33.5 28.5t-13.5 64.5zM763 79h150l52 212z" />
<glyph unicode="&#xbd;" d="M56 722q0 14 3 33q7 37 20 54t36 17h148l65 364l-124 -58q-16 -7 -25 -7q-14 0 -26 11.5t-23 38.5q-10 27 -10 41q0 16 8.5 26.5t26.5 18.5l284 126q14 7 32 7q20 0 33.5 -10.5t13.5 -29.5q0 -7 -1 -10l-91 -518h159q34 0 34 -40q0 -13 -3 -31q-7 -38 -20 -54.5 t-36 -16.5h-471q-17 0 -25 9t-8 29zM66 330q0 26 25 39l1029 521q12 5 21 5q26 0 48 -45q14 -28 14 -50q0 -26 -25 -39l-1029 -521q-12 -5 -21 -5q-26 0 -48 45q-14 28 -14 50zM579 -167q0 14 3 34q8 47 39 69l290 202q65 45 88.5 72.5t23.5 64.5q0 32 -21.5 51t-61.5 19 q-82 0 -190 -44q-8 -4 -18 -4q-34 0 -49 56q-5 22 -5 34q0 39 35 55q58 25 123 38.5t130 13.5q108 0 168 -55t60 -146q0 -53 -22 -94.5t-60.5 -75.5t-104.5 -80l-167 -114h284q16 0 24 -8t8 -28q0 -17 -4 -37q-7 -41 -19 -56.5t-34 -15.5h-487q-33 0 -33 49z" />
<glyph unicode="&#xbe;" d="M64 756q0 15 10 45q10 27 25 42t29 15q4 0 10 -2q42 -19 91.5 -31t94.5 -12q138 0 138 90q0 28 -20 43.5t-58 15.5h-103q-30 0 -30 39q0 14 3 32q6 39 19.5 55.5t33.5 16.5h86q61 0 89.5 23.5t28.5 58.5q0 30 -24.5 46t-73.5 16q-86 0 -191 -40q-12 -4 -19 -4 q-32 0 -46 55q-5 23 -5 36q0 38 34 53q56 22 121 33.5t126 11.5q119 0 183.5 -50.5t64.5 -135.5q0 -127 -131 -179q41 -19 63.5 -53t22.5 -79q0 -94 -71.5 -161t-242.5 -67q-61 0 -125 12.5t-108 32.5q-25 11 -25 42zM66 290q0 26 25 39l1029 521q12 5 21 5q26 0 48 -45 q14 -28 14 -50q0 -26 -25 -39l-1029 -521q-12 -5 -21 -5q-26 0 -48 45q-14 28 -14 50zM550 30q0 16 5.5 28t18.5 25l381 383q34 37 106 37q45 0 66.5 -12.5t17.5 -33.5l-67 -378h76q18 0 26 -10t8 -31q0 -12 -3 -30q-7 -37 -20.5 -54t-36.5 -17h-74l-22 -121 q-4 -21 -21.5 -30.5t-59.5 -9.5q-48 0 -68 10t-16 30l21 121h-291q-20 0 -33.5 28.5t-13.5 64.5zM763 79h150l52 212z" />
<glyph unicode="&#xbf;" d="M129 -33q0 143 88 240t284 139l24 91q6 25 30.5 36.5t79.5 11.5t74.5 -11.5t17.5 -36.5l-17 -208q-3 -44 -39 -51l-113 -20q-85 -15 -129 -55t-44 -105q0 -54 34.5 -85t101.5 -31q50 0 106 12t110 34q12 5 22 5q38 0 64 -82q12 -38 12 -63t-11 -41.5t-33 -26.5 q-66 -30 -142.5 -47.5t-149.5 -17.5q-117 0 -200.5 38.5t-126.5 109t-43 164.5zM518 687q0 7 1 10l31 174q6 34 40 48.5t110 14.5q72 0 106.5 -12.5t34.5 -40.5q0 -7 -1 -10l-31 -174q-6 -34 -40 -48.5t-110 -14.5q-72 0 -106.5 12.5t-34.5 40.5z" />
<glyph unicode="&#xc0;" d="M15 64q0 17 12 38l580 1042q20 35 54.5 50t100.5 15q65 0 93.5 -15t35.5 -50l203 -1054q2 -12 2 -18q0 -27 -24.5 -44.5t-84.5 -29.5q-49 -10 -82 -10q-27 0 -41 9t-18 30l-35 193h-438l-105 -193q-24 -42 -82 -42q-35 0 -80 13q-49 13 -70 29t-21 37zM406 1546 q0 39 40 93q57 75 103 75q17 0 33 -11l347 -255q21 -15 21 -43t-22 -63q-32 -51 -68 -51q-13 0 -23 6l-407 205q-24 12 -24 44zM492 455h283l-65 410h-4z" />
<glyph unicode="&#xc1;" d="M15 64q0 17 12 38l580 1042q20 35 54.5 50t100.5 15q65 0 93.5 -15t35.5 -50l203 -1054q2 -12 2 -18q0 -27 -24.5 -44.5t-84.5 -29.5q-49 -10 -82 -10q-27 0 -41 9t-18 30l-35 193h-438l-105 -193q-24 -42 -82 -42q-35 0 -80 13q-49 13 -70 29t-21 37zM492 455h283 l-65 410h-4zM578 1405q0 28 21 43l347 255q16 11 33 11q46 0 103 -75q40 -54 40 -93q0 -32 -24 -44l-407 -205q-10 -6 -23 -6q-36 0 -68 51q-22 35 -22 63z" />
<glyph unicode="&#xc2;" d="M15 64q0 17 12 38l580 1042q20 35 54.5 50t100.5 15q65 0 93.5 -15t35.5 -50l203 -1054q2 -12 2 -18q0 -27 -24.5 -44.5t-84.5 -29.5q-49 -10 -82 -10q-27 0 -41 9t-18 30l-35 193h-438l-105 -193q-24 -42 -82 -42q-35 0 -80 13q-49 13 -70 29t-21 37zM418 1388 q0 30 29 51l295 218q16 12 33 17.5t42 5.5q26 0 40.5 -5.5t26.5 -17.5l232 -235q22 -22 22 -46q0 -26 -27 -59q-32 -39 -62 -39q-18 0 -37 13l-222 145l-265 -138q-17 -9 -30 -9q-32 0 -60 48q-17 31 -17 51zM492 455h283l-65 410h-4z" />
<glyph unicode="&#xc3;" d="M15 64q0 17 12 38l580 1042q20 35 54.5 50t100.5 15q65 0 93.5 -15t35.5 -50l203 -1054q2 -12 2 -18q0 -27 -24.5 -44.5t-84.5 -29.5q-49 -10 -82 -10q-27 0 -41 9t-18 30l-35 193h-438l-105 -193q-24 -42 -82 -42q-35 0 -80 13q-49 13 -70 29t-21 37zM395 1436 q0 20 10 34q51 76 115 118.5t133 42.5q40 0 73 -12t77 -34q36 -18 58.5 -26.5t46.5 -8.5q61 0 129 72q14 14 30 14q29 0 66 -40q36 -40 36 -76q0 -20 -10 -34q-51 -76 -115 -118.5t-133 -42.5q-40 0 -73 12t-77 34q-36 18 -58.5 26.5t-46.5 8.5q-61 0 -129 -72 q-14 -14 -30 -14q-29 0 -66 40q-36 40 -36 76zM492 455h283l-65 410h-4z" />
<glyph unicode="&#xc4;" d="M15 64q0 17 12 38l580 1042q20 35 54.5 50t100.5 15q65 0 93.5 -15t35.5 -50l203 -1054q2 -12 2 -18q0 -27 -24.5 -44.5t-84.5 -29.5q-49 -10 -82 -10q-27 0 -41 9t-18 30l-35 193h-438l-105 -193q-24 -42 -82 -42q-35 0 -80 13q-49 13 -70 29t-21 37zM430 1393q0 8 1 13 l29 164q6 35 34.5 49t98.5 14q63 0 90.5 -12t27.5 -38q0 -8 -1 -13l-29 -164q-6 -35 -35 -49t-99 -14q-64 0 -90.5 11.5t-26.5 38.5zM492 455h283l-65 410h-4zM870 1393q0 8 1 13l29 164q6 35 34.5 49t98.5 14q63 0 90.5 -12t27.5 -38q0 -8 -1 -13l-29 -164q-6 -35 -35 -49 t-99 -14q-64 0 -90.5 11.5t-26.5 38.5z" />
<glyph unicode="&#xc5;" d="M15 64q0 17 12 38l580 1042q20 35 54.5 50t100.5 15q65 0 93.5 -15t35.5 -50l203 -1054q2 -12 2 -18q0 -27 -24.5 -44.5t-84.5 -29.5q-49 -10 -82 -10q-27 0 -41 9t-18 30l-35 193h-438l-105 -193q-24 -42 -82 -42q-35 0 -80 13q-49 13 -70 29t-21 37zM492 455h283 l-65 410h-4zM532 1508q0 81 37.5 147t102 104t143.5 38q71 0 126.5 -30t86 -83.5t30.5 -121.5q0 -81 -37.5 -147t-102 -104t-143.5 -38q-71 0 -126.5 30t-86 83.5t-30.5 121.5zM702 1523q0 -36 23 -58t62 -22q46 0 73.5 30t27.5 74q0 36 -23 58t-62 22q-46 0 -73.5 -30 t-27.5 -74z" />
<glyph unicode="&#xc6;" d="M-65 69q0 17 12 41l526 1020q15 30 33.5 43.5t50.5 13.5h679q26 0 37.5 -12t11.5 -43q0 -27 -7 -63q-8 -47 -19 -72.5t-26 -35t-39 -9.5h-297l-39 -223h234q26 0 37.5 -12t11.5 -43q0 -27 -7 -63q-8 -47 -19 -72.5t-25.5 -35t-38.5 -9.5h-234l-46 -259h317q26 0 37.5 -12 t11.5 -43q0 -27 -7 -63q-8 -47 -19 -72.5t-25.5 -35t-38.5 -9.5h-504q-28 0 -41 10t-13 32q0 5 2 21l36 207h-223l-125 -249q-19 -38 -73 -38q-34 0 -90 17q-43 14 -62 31t-19 38zM414 505h155l78 447h-17z" />
<glyph unicode="&#xc7;" d="M150 470q0 189 74 358.5t218.5 275t344.5 105.5q206 0 371 -87q42 -23 42 -70q0 -30 -16 -72q-35 -86 -82 -86q-14 0 -28 8q-70 36 -139.5 53t-149.5 17q-122 0 -206 -70.5t-125.5 -182.5t-41.5 -236q0 -132 60.5 -200t178.5 -68q80 0 155.5 17t158.5 53q14 7 29 7 q22 0 39 -19.5t32 -63.5q14 -44 14 -71t-11.5 -44.5t-35.5 -28.5q-168 -75 -342 -85l-11 -63q88 -8 135.5 -51.5t47.5 -117.5q0 -100 -76.5 -160t-228.5 -60q-141 0 -240 35q-25 9 -25 43q0 17 10 49q10 31 26 47t33 16q4 0 12 -2q83 -29 158 -29q54 0 80.5 14t26.5 38 q0 46 -89 46q-9 0 -19 -1t-21 -1h-6q-27 0 -27 26q0 7 1 11l29 170q-167 35 -261.5 160t-94.5 320z" />
<glyph unicode="&#xc8;" d="M139 42q0 5 2 21l187 1061q6 34 23 48.5t51 14.5h714q26 0 37.5 -12t11.5 -43q0 -27 -7 -63q-8 -47 -19 -72.5t-26 -35t-39 -9.5h-527l-39 -223h364q26 0 37.5 -12t11.5 -43q0 -27 -7 -63q-8 -47 -19 -72.5t-25.5 -35t-38.5 -9.5h-364l-46 -259h547q26 0 37.5 -12 t11.5 -43q0 -27 -7 -63q-8 -47 -19 -72.5t-25.5 -35t-38.5 -9.5h-734q-28 0 -41 10t-13 32zM456 1546q0 39 40 93q57 75 103 75q17 0 33 -11l347 -255q21 -15 21 -43t-22 -63q-32 -51 -68 -51q-12 0 -23 6l-407 205q-24 12 -24 44z" />
<glyph unicode="&#xc9;" d="M139 42q0 5 2 21l187 1061q6 34 23 48.5t51 14.5h714q26 0 37.5 -12t11.5 -43q0 -27 -7 -63q-8 -47 -19 -72.5t-26 -35t-39 -9.5h-527l-39 -223h364q26 0 37.5 -12t11.5 -43q0 -27 -7 -63q-8 -47 -19 -72.5t-25.5 -35t-38.5 -9.5h-364l-46 -259h547q26 0 37.5 -12 t11.5 -43q0 -27 -7 -63q-8 -47 -19 -72.5t-25.5 -35t-38.5 -9.5h-734q-28 0 -41 10t-13 32zM538 1405q0 28 21 43l347 255q16 11 33 11q46 0 103 -75q40 -54 40 -93q0 -32 -24 -44l-407 -205q-10 -6 -23 -6q-36 0 -68 51q-22 35 -22 63z" />
<glyph unicode="&#xca;" d="M139 42q0 5 2 21l187 1061q6 34 23 48.5t51 14.5h714q26 0 37.5 -12t11.5 -43q0 -27 -7 -63q-8 -47 -19 -72.5t-26 -35t-39 -9.5h-527l-39 -223h364q26 0 37.5 -12t11.5 -43q0 -27 -7 -63q-8 -47 -19 -72.5t-25.5 -35t-38.5 -9.5h-364l-46 -259h547q26 0 37.5 -12 t11.5 -43q0 -27 -7 -63q-8 -47 -19 -72.5t-25.5 -35t-38.5 -9.5h-734q-28 0 -41 10t-13 32zM434 1388q0 30 29 51l295 218q16 12 33 17.5t42 5.5q26 0 40.5 -5.5t26.5 -17.5l232 -235q22 -22 22 -46q0 -26 -27 -59q-32 -39 -62 -39q-17 0 -37 13l-222 145l-265 -138 q-17 -9 -30 -9q-32 0 -60 48q-17 31 -17 51z" />
<glyph unicode="&#xcb;" d="M139 42q0 5 2 21l187 1061q6 34 23 48.5t51 14.5h714q26 0 37.5 -12t11.5 -43q0 -27 -7 -63q-8 -47 -19 -72.5t-26 -35t-39 -9.5h-527l-39 -223h364q26 0 37.5 -12t11.5 -43q0 -27 -7 -63q-8 -47 -19 -72.5t-25.5 -35t-38.5 -9.5h-364l-46 -259h547q26 0 37.5 -12 t11.5 -43q0 -27 -7 -63q-8 -47 -19 -72.5t-25.5 -35t-38.5 -9.5h-734q-28 0 -41 10t-13 32zM433 1393q0 8 1 13l29 164q6 35 34.5 49t98.5 14q63 0 90.5 -12t27.5 -38q0 -8 -1 -13l-29 -164q-6 -35 -35 -49t-99 -14q-64 0 -90.5 11.5t-26.5 38.5zM873 1393q0 8 1 13l29 164 q6 35 34.5 49t98.5 14q63 0 90.5 -12t27.5 -38q0 -8 -1 -13l-29 -164q-6 -35 -35 -49t-99 -14q-64 0 -90.5 11.5t-26.5 38.5z" />
<glyph unicode="&#xcc;" d="M133 54q0 22 6 58q11 67 29.5 90t54.5 23h236l129 737h-256q-26 0 -37.5 11t-11.5 42q0 23 6 59q11 67 29 90t54 23h742q26 0 37.5 -11.5t11.5 -42.5q0 -23 -6 -59q-7 -46 -18 -70t-26 -33t-39 -9h-236l-129 -737h256q26 0 37 -11.5t11 -41.5q0 -22 -6 -60 q-7 -46 -17.5 -70t-25.5 -33t-39 -9h-742q-26 0 -38 11.5t-12 42.5zM436 1546q0 39 40 93q57 75 103 75q17 0 33 -11l347 -255q21 -15 21 -43t-22 -63q-32 -51 -68 -51q-13 0 -23 6l-407 205q-24 12 -24 44z" />
<glyph unicode="&#xcd;" d="M133 54q0 22 6 58q11 67 29.5 90t54.5 23h236l129 737h-256q-26 0 -37.5 11t-11.5 42q0 23 6 59q11 67 29 90t54 23h742q26 0 37.5 -11.5t11.5 -42.5q0 -23 -6 -59q-7 -46 -18 -70t-26 -33t-39 -9h-236l-129 -737h256q26 0 37 -11.5t11 -41.5q0 -22 -6 -60 q-7 -46 -17.5 -70t-25.5 -33t-39 -9h-742q-26 0 -38 11.5t-12 42.5zM548 1405q0 28 21 43l347 255q16 11 33 11q46 0 103 -75q40 -54 40 -93q0 -32 -24 -44l-407 -205q-10 -6 -23 -6q-36 0 -68 51q-22 35 -22 63z" />
<glyph unicode="&#xce;" d="M133 54q0 22 6 58q11 67 29.5 90t54.5 23h236l129 737h-256q-26 0 -37.5 11t-11.5 42q0 23 6 59q11 67 29 90t54 23h742q26 0 37.5 -11.5t11.5 -42.5q0 -23 -6 -59q-7 -46 -18 -70t-26 -33t-39 -9h-236l-129 -737h256q26 0 37 -11.5t11 -41.5q0 -22 -6 -60 q-7 -46 -17.5 -70t-25.5 -33t-39 -9h-742q-26 0 -38 11.5t-12 42.5zM414 1388q0 30 29 51l295 218q16 12 33 17.5t42 5.5q26 0 40.5 -5.5t26.5 -17.5l232 -235q22 -22 22 -46q0 -26 -27 -59q-32 -39 -62 -39q-17 0 -37 13l-222 145l-265 -138q-16 -9 -30 -9q-32 0 -60 48 q-17 31 -17 51z" />
<glyph unicode="&#xcf;" d="M133 54q0 22 6 58q11 67 29.5 90t54.5 23h236l129 737h-256q-26 0 -37.5 11t-11.5 42q0 23 6 59q11 67 29 90t54 23h742q26 0 37.5 -11.5t11.5 -42.5q0 -23 -6 -59q-7 -46 -18 -70t-26 -33t-39 -9h-236l-129 -737h256q26 0 37 -11.5t11 -41.5q0 -22 -6 -60 q-7 -46 -17.5 -70t-25.5 -33t-39 -9h-742q-26 0 -38 11.5t-12 42.5zM421 1393q0 8 1 13l29 164q6 35 34.5 49t98.5 14q63 0 90.5 -12t27.5 -38q0 -8 -1 -13l-29 -164q-6 -35 -35 -49t-99 -14q-64 0 -90.5 11.5t-26.5 38.5zM861 1393q0 8 1 13l29 164q6 35 34.5 49t98.5 14 q63 0 90.5 -12t27.5 -38q0 -8 -1 -13l-29 -164q-6 -35 -35 -49t-99 -14q-64 0 -90.5 11.5t-26.5 38.5z" />
<glyph unicode="&#xd0;" d="M70 547q0 22 6 59q8 47 19 71t25.5 33t38.5 9h88l71 405q6 34 23 48.5t51 14.5h315q148 0 253.5 -58.5t160.5 -167t55 -255.5q0 -119 -36.5 -245t-105.5 -220q-86 -118 -213 -179.5t-286 -61.5h-352q-28 0 -41 10t-13 32q0 5 2 21l76 431h-87q-27 0 -38.5 11t-11.5 42z M411 235h130q81 0 148 30.5t114 88.5q53 67 82 163.5t29 187.5q0 120 -57 183.5t-170 63.5h-150l-41 -233h175q26 0 38 -11t12 -41q0 -26 -7 -61q-8 -47 -18.5 -71t-25 -32.5t-38.5 -8.5h-175z" />
<glyph unicode="&#xd1;" d="M79 42q0 5 2 21l187 1061q6 34 23 48.5t51 14.5h134q38 0 50 -24l335 -686h4l115 647q6 34 23 48.5t51 14.5h110q28 0 41 -10t13 -32q0 -5 -2 -21l-191 -1080q-6 -33 -33.5 -49.5t-87.5 -16.5q-44 0 -65 13t-35 42l-359 733h-4l-124 -703q-6 -34 -23 -48.5t-51 -14.5 h-110q-28 0 -41 10t-13 32zM399 1436q0 20 10 34q51 76 115 118.5t133 42.5q40 0 73 -12t77 -34q36 -18 58.5 -26.5t46.5 -8.5q61 0 129 72q14 14 30 14q29 0 66 -40q36 -40 36 -76q0 -20 -10 -34q-51 -76 -115 -118.5t-133 -42.5q-40 0 -73 12t-77 34q-36 18 -58.5 26.5 t-46.5 8.5q-61 0 -129 -72q-14 -14 -30 -14q-29 0 -66 40q-36 40 -36 76z" />
<glyph unicode="&#xd2;" d="M91 471q0 123 38 254t109 231q87 124 214 188.5t285 64.5q142 0 248 -60.5t163.5 -172t57.5 -260.5q0 -123 -38 -254t-109 -231q-87 -124 -214 -188.5t-285 -64.5q-142 0 -248 60.5t-163.5 172t-57.5 260.5zM353 472q0 -125 57 -191t170 -66q157 0 253 128q53 71 82 174 t29 198q0 125 -57 191t-170 66q-157 0 -253 -128q-53 -71 -82 -174t-29 -198zM446 1546q0 39 40 93q57 75 103 75q17 0 33 -11l347 -255q21 -15 21 -43t-22 -63q-32 -51 -68 -51q-12 0 -23 6l-407 205q-24 12 -24 44z" />
<glyph unicode="&#xd3;" d="M91 471q0 123 38 254t109 231q87 124 214 188.5t285 64.5q142 0 248 -60.5t163.5 -172t57.5 -260.5q0 -123 -38 -254t-109 -231q-87 -124 -214 -188.5t-285 -64.5q-142 0 -248 60.5t-163.5 172t-57.5 260.5zM353 472q0 -125 57 -191t170 -66q157 0 253 128q53 71 82 174 t29 198q0 125 -57 191t-170 66q-157 0 -253 -128q-53 -71 -82 -174t-29 -198zM528 1405q0 28 21 43l347 255q16 11 33 11q46 0 103 -75q40 -54 40 -93q0 -32 -24 -44l-407 -205q-11 -6 -23 -6q-36 0 -68 51q-22 35 -22 63z" />
<glyph unicode="&#xd4;" d="M91 471q0 123 38 254t109 231q87 124 214 188.5t285 64.5q142 0 248 -60.5t163.5 -172t57.5 -260.5q0 -123 -38 -254t-109 -231q-87 -124 -214 -188.5t-285 -64.5q-142 0 -248 60.5t-163.5 172t-57.5 260.5zM353 472q0 -125 57 -191t170 -66q157 0 253 128q53 71 82 174 t29 198q0 125 -57 191t-170 66q-157 0 -253 -128q-53 -71 -82 -174t-29 -198zM414 1388q0 30 29 51l295 218q16 12 33 17.5t42 5.5q26 0 40.5 -5.5t26.5 -17.5l232 -235q22 -22 22 -46q0 -26 -27 -59q-32 -39 -62 -39q-17 0 -37 13l-222 145l-265 -138q-16 -9 -30 -9 q-32 0 -60 48q-17 31 -17 51z" />
<glyph unicode="&#xd5;" d="M91 471q0 123 38 254t109 231q87 124 214 188.5t285 64.5q142 0 248 -60.5t163.5 -172t57.5 -260.5q0 -123 -38 -254t-109 -231q-87 -124 -214 -188.5t-285 -64.5q-142 0 -248 60.5t-163.5 172t-57.5 260.5zM353 472q0 -125 57 -191t170 -66q157 0 253 128q53 71 82 174 t29 198q0 125 -57 191t-170 66q-157 0 -253 -128q-53 -71 -82 -174t-29 -198zM398 1436q0 20 10 34q51 76 115 118.5t133 42.5q40 0 73 -12t77 -34q36 -18 58.5 -26.5t46.5 -8.5q61 0 129 72q14 14 30 14q29 0 66 -40q36 -40 36 -76q0 -20 -10 -34q-51 -76 -115 -118.5 t-133 -42.5q-40 0 -73 12t-77 34q-36 18 -58.5 26.5t-46.5 8.5q-61 0 -129 -72q-14 -14 -30 -14q-29 0 -66 40q-36 40 -36 76z" />
<glyph unicode="&#xd6;" d="M91 471q0 123 38 254t109 231q87 124 214 188.5t285 64.5q142 0 248 -60.5t163.5 -172t57.5 -260.5q0 -123 -38 -254t-109 -231q-87 -124 -214 -188.5t-285 -64.5q-142 0 -248 60.5t-163.5 172t-57.5 260.5zM353 472q0 -125 57 -191t170 -66q157 0 253 128q53 71 82 174 t29 198q0 125 -57 191t-170 66q-157 0 -253 -128q-53 -71 -82 -174t-29 -198zM428 1393q0 8 1 13l29 164q6 35 34.5 49t98.5 14q63 0 90.5 -12t27.5 -38q0 -8 -1 -13l-29 -164q-6 -35 -35 -49t-99 -14q-64 0 -90.5 11.5t-26.5 38.5zM868 1393q0 8 1 13l29 164q6 35 34.5 49 t98.5 14q63 0 90.5 -12t27.5 -38q0 -8 -1 -13l-29 -164q-6 -35 -35 -49t-99 -14q-64 0 -90.5 11.5t-26.5 38.5z" />
<glyph unicode="&#xd7;" d="M203 336q0 20 24 41l259 220l-182 218q-17 20 -17 37q0 16 14.5 35.5t47.5 47.5q58 48 87 48q20 0 41 -24l181 -217l258 219q20 17 37 17t36 -14.5t48 -48.5q48 -56 48 -86q0 -21 -25 -41l-258 -219l183 -219q17 -20 17 -37q0 -16 -14.5 -35.5t-48.5 -48.5 q-56 -48 -86 -48q-21 0 -41 25l-182 218l-259 -220q-20 -17 -37 -17q-16 0 -35.5 14.5t-47.5 47.5q-48 58 -48 87z" />
<glyph unicode="&#xd8;" d="M49 19q0 19 22 44l98 112q-78 121 -78 296q0 123 38 254t109 231q87 124 214 188.5t285 64.5q157 0 271 -74l86 98q13 15 24.5 22t24.5 7q23 0 63 -31q23 -19 33.5 -33.5t10.5 -28.5q0 -18 -22 -43l-100 -114q78 -121 78 -296q0 -123 -38 -254t-109 -231 q-87 -124 -214 -188.5t-285 -64.5q-157 0 -271 74l-84 -96q-13 -15 -24.5 -22t-24.5 -7q-23 0 -63 31q-44 34 -44 61zM353 472q0 -45 7 -79l481 550q-50 29 -124 29q-157 0 -253 -128q-53 -71 -82 -174t-29 -198zM456 243q51 -28 124 -28q157 0 253 128q53 71 82 174t29 198 q0 37 -7 79z" />
<glyph unicode="&#xd9;" d="M141 357q0 45 9 96l118 671q6 34 23 48.5t51 14.5h124q28 0 41 -10t13 -32q0 -5 -2 -21l-119 -671q-6 -34 -6 -63q0 -88 51 -131.5t141 -43.5q104 0 172.5 59t89.5 179l119 671q6 34 23 48.5t51 14.5h124q28 0 41 -10t13 -32q0 -5 -2 -21l-126 -711 q-39 -216 -172.5 -325.5t-352.5 -109.5q-128 0 -223.5 46t-148 131.5t-52.5 201.5zM446 1546q0 39 40 93q57 75 103 75q17 0 33 -11l347 -255q21 -15 21 -43t-22 -63q-32 -51 -68 -51q-12 0 -23 6l-407 205q-24 12 -24 44z" />
<glyph unicode="&#xda;" d="M141 357q0 45 9 96l118 671q6 34 23 48.5t51 14.5h124q28 0 41 -10t13 -32q0 -5 -2 -21l-119 -671q-6 -34 -6 -63q0 -88 51 -131.5t141 -43.5q104 0 172.5 59t89.5 179l119 671q6 34 23 48.5t51 14.5h124q28 0 41 -10t13 -32q0 -5 -2 -21l-126 -711 q-39 -216 -172.5 -325.5t-352.5 -109.5q-128 0 -223.5 46t-148 131.5t-52.5 201.5zM548 1405q0 28 21 43l347 255q16 11 33 11q46 0 103 -75q40 -54 40 -93q0 -32 -24 -44l-407 -205q-10 -6 -23 -6q-36 0 -68 51q-22 35 -22 63z" />
<glyph unicode="&#xdb;" d="M141 357q0 45 9 96l118 671q6 34 23 48.5t51 14.5h124q28 0 41 -10t13 -32q0 -5 -2 -21l-119 -671q-6 -34 -6 -63q0 -88 51 -131.5t141 -43.5q104 0 172.5 59t89.5 179l119 671q6 34 23 48.5t51 14.5h124q28 0 41 -10t13 -32q0 -5 -2 -21l-126 -711 q-39 -216 -172.5 -325.5t-352.5 -109.5q-128 0 -223.5 46t-148 131.5t-52.5 201.5zM424 1388q0 30 29 51l295 218q16 12 33 17.5t42 5.5q26 0 40.5 -5.5t26.5 -17.5l232 -235q22 -22 22 -46q0 -26 -27 -59q-32 -39 -62 -39q-18 0 -37 13l-222 145l-265 -138q-16 -9 -30 -9 q-32 0 -60 48q-17 31 -17 51z" />
<glyph unicode="&#xdc;" d="M141 357q0 45 9 96l118 671q6 34 23 48.5t51 14.5h124q28 0 41 -10t13 -32q0 -5 -2 -21l-119 -671q-6 -34 -6 -63q0 -88 51 -131.5t141 -43.5q104 0 172.5 59t89.5 179l119 671q6 34 23 48.5t51 14.5h124q28 0 41 -10t13 -32q0 -5 -2 -21l-126 -711 q-39 -216 -172.5 -325.5t-352.5 -109.5q-128 0 -223.5 46t-148 131.5t-52.5 201.5zM429 1393q0 8 1 13l29 164q6 35 34.5 49t98.5 14q63 0 90.5 -12t27.5 -38q0 -8 -1 -13l-29 -164q-6 -35 -35 -49t-99 -14q-64 0 -90.5 11.5t-26.5 38.5zM869 1393q0 8 1 13l29 164 q6 35 34.5 49t98.5 14q63 0 90.5 -12t27.5 -38q0 -8 -1 -13l-29 -164q-6 -35 -35 -49t-99 -14q-64 0 -90.5 11.5t-26.5 38.5z" />
<glyph unicode="&#xdd;" d="M222 1095q0 21 22 39t74 40q64 26 94 26q32 0 45 -31l198 -460l362 460q25 31 61 31t94 -27q80 -36 80 -78q0 -21 -20 -46l-485 -606l-67 -380q-6 -34 -23 -48.5t-51 -14.5h-124q-28 0 -41 10t-13 32q0 5 2 21l70 400l-272 606q-6 14 -6 26zM568 1405q0 28 21 43l347 255 q16 11 33 11q46 0 103 -75q40 -54 40 -93q0 -32 -24 -44l-407 -205q-10 -6 -23 -6q-36 0 -68 51q-22 35 -22 63z" />
<glyph unicode="&#xde;" d="M149 42q0 5 2 21l187 1061q6 34 23 48.5t51 14.5h124q28 0 41 -10t13 -32q0 -5 -2 -21l-26 -147h154q206 0 305 -88t99 -253q0 -132 -56 -227.5t-165 -146t-267 -50.5h-205l-26 -149q-6 -34 -23 -48.5t-51 -14.5h-124q-28 0 -41 10t-13 32zM469 447h158q237 0 237 165 q0 66 -48 98t-151 32h-144z" />
<glyph unicode="&#xdf;" d="M137 42q0 5 2 21l143 814q36 205 157.5 322.5t315.5 117.5q113 0 195.5 -40.5t126 -112t43.5 -162.5q0 -233 -208 -334q80 -32 122 -96.5t42 -153.5q0 -110 -50 -210t-162 -165t-289 -65q-34 0 -48.5 18.5t-14.5 64.5q0 19 1 30q4 62 20.5 87t51.5 27q114 4 171 65 t57 152q0 61 -40 94t-115 33q-25 0 -37 13t-12 43q0 23 6 56q11 62 29.5 86.5t53.5 26.5q91 7 132 64.5t41 130.5q0 54 -33 87.5t-101 33.5q-81 0 -134 -55.5t-71 -160.5l-143 -811q-6 -34 -23 -48.5t-51 -14.5h-124q-28 0 -41 10t-13 32z" />
<glyph unicode="&#xe0;" d="M109 380q0 134 57 264.5t171.5 216t276.5 85.5q91 0 164.5 -44.5t110.5 -119.5l13 79q5 34 22.5 48.5t51.5 14.5h94q28 0 41 -10t13 -32q0 -5 -2 -21l-90 -511q-4 -21 -4 -42q0 -83 82 -83h5q26 0 37.5 -11t11.5 -42q0 -23 -6 -59q-11 -67 -29 -90t-54 -23h-24 q-84 0 -142 32.5t-81 100.5q-149 -155 -364 -155q-108 0 -188 51t-123.5 142t-43.5 209zM369 391q0 -84 44.5 -132.5t122.5 -48.5q86 0 149 46t96.5 118.5t33.5 147.5q0 91 -53 141.5t-138 50.5t-142.5 -50t-85 -125t-27.5 -148zM416 1276q0 39 40 93q57 75 103 75 q17 0 33 -11l347 -255q21 -15 21 -43t-22 -63q-32 -51 -68 -51q-12 0 -23 6l-407 205q-24 12 -24 44z" />
<glyph unicode="&#xe1;" d="M109 380q0 134 57 264.5t171.5 216t276.5 85.5q91 0 164.5 -44.5t110.5 -119.5l13 79q5 34 22.5 48.5t51.5 14.5h94q28 0 41 -10t13 -32q0 -5 -2 -21l-90 -511q-4 -21 -4 -42q0 -83 82 -83h5q26 0 37.5 -11t11.5 -42q0 -23 -6 -59q-11 -67 -29 -90t-54 -23h-24 q-84 0 -142 32.5t-81 100.5q-149 -155 -364 -155q-108 0 -188 51t-123.5 142t-43.5 209zM369 391q0 -84 44.5 -132.5t122.5 -48.5q86 0 149 46t96.5 118.5t33.5 147.5q0 91 -53 141.5t-138 50.5t-142.5 -50t-85 -125t-27.5 -148zM468 1135q0 28 21 43l347 255q16 11 33 11 q46 0 103 -75q40 -54 40 -93q0 -32 -24 -44l-407 -205q-10 -6 -23 -6q-36 0 -68 51q-22 35 -22 63z" />
<glyph unicode="&#xe2;" d="M109 380q0 134 57 264.5t171.5 216t276.5 85.5q91 0 164.5 -44.5t110.5 -119.5l13 79q5 34 22.5 48.5t51.5 14.5h94q28 0 41 -10t13 -32q0 -5 -2 -21l-90 -511q-4 -21 -4 -42q0 -83 82 -83h5q26 0 37.5 -11t11.5 -42q0 -23 -6 -59q-11 -67 -29 -90t-54 -23h-24 q-84 0 -142 32.5t-81 100.5q-149 -155 -364 -155q-108 0 -188 51t-123.5 142t-43.5 209zM364 1118q0 30 29 51l295 218q16 12 33 17.5t42 5.5q26 0 40.5 -5.5t26.5 -17.5l232 -235q22 -22 22 -46q0 -26 -27 -59q-32 -39 -62 -39q-18 0 -37 13l-222 145l-265 -138 q-16 -9 -30 -9q-32 0 -60 48q-17 31 -17 51zM369 391q0 -84 44.5 -132.5t122.5 -48.5q86 0 149 46t96.5 118.5t33.5 147.5q0 91 -53 141.5t-138 50.5t-142.5 -50t-85 -125t-27.5 -148z" />
<glyph unicode="&#xe3;" d="M109 380q0 134 57 264.5t171.5 216t276.5 85.5q91 0 164.5 -44.5t110.5 -119.5l13 79q5 34 22.5 48.5t51.5 14.5h94q28 0 41 -10t13 -32q0 -5 -2 -21l-90 -511q-4 -21 -4 -42q0 -83 82 -83h5q26 0 37.5 -11t11.5 -42q0 -23 -6 -59q-11 -67 -29 -90t-54 -23h-24 q-84 0 -142 32.5t-81 100.5q-149 -155 -364 -155q-108 0 -188 51t-123.5 142t-43.5 209zM343 1176q0 20 10 34q51 76 115 118.5t133 42.5q40 0 73 -12t77 -34q36 -18 58.5 -26.5t46.5 -8.5q61 0 129 72q14 14 30 14q29 0 66 -40q36 -40 36 -76q0 -20 -10 -34 q-51 -76 -115 -118.5t-133 -42.5q-40 0 -73 12t-77 34q-36 18 -58.5 26.5t-46.5 8.5q-61 0 -129 -72q-14 -14 -30 -14q-29 0 -66 40q-36 40 -36 76zM369 391q0 -84 44.5 -132.5t122.5 -48.5q86 0 149 46t96.5 118.5t33.5 147.5q0 91 -53 141.5t-138 50.5t-142.5 -50 t-85 -125t-27.5 -148z" />
<glyph unicode="&#xe4;" d="M109 380q0 134 57 264.5t171.5 216t276.5 85.5q91 0 164.5 -44.5t110.5 -119.5l13 79q5 34 22.5 48.5t51.5 14.5h94q28 0 41 -10t13 -32q0 -5 -2 -21l-90 -511q-4 -21 -4 -42q0 -83 82 -83h5q26 0 37.5 -11t11.5 -42q0 -23 -6 -59q-11 -67 -29 -90t-54 -23h-24 q-84 0 -142 32.5t-81 100.5q-149 -155 -364 -155q-108 0 -188 51t-123.5 142t-43.5 209zM358 1123q0 8 1 13l29 164q6 35 34.5 49t98.5 14q63 0 90.5 -12t27.5 -38q0 -8 -1 -13l-29 -164q-6 -35 -35 -49t-99 -14q-64 0 -90.5 11.5t-26.5 38.5zM369 391q0 -84 44.5 -132.5 t122.5 -48.5q86 0 149 46t96.5 118.5t33.5 147.5q0 91 -53 141.5t-138 50.5t-142.5 -50t-85 -125t-27.5 -148zM798 1123q0 8 1 13l29 164q6 35 34.5 49t98.5 14q63 0 90.5 -12t27.5 -38q0 -8 -1 -13l-29 -164q-6 -35 -35 -49t-99 -14q-64 0 -90.5 11.5t-26.5 38.5z" />
<glyph unicode="&#xe5;" d="M109 380q0 134 57 264.5t171.5 216t276.5 85.5q91 0 164.5 -44.5t110.5 -119.5l13 79q5 34 22.5 48.5t51.5 14.5h94q28 0 41 -10t13 -32q0 -5 -2 -21l-90 -511q-4 -21 -4 -42q0 -83 82 -83h5q26 0 37.5 -11t11.5 -42q0 -23 -6 -59q-11 -67 -29 -90t-54 -23h-24 q-84 0 -142 32.5t-81 100.5q-149 -155 -364 -155q-108 0 -188 51t-123.5 142t-43.5 209zM369 391q0 -84 44.5 -132.5t122.5 -48.5q86 0 149 46t96.5 118.5t33.5 147.5q0 91 -53 141.5t-138 50.5t-142.5 -50t-85 -125t-27.5 -148zM469 1278q0 81 37.5 147t102 104t143.5 38 q71 0 126.5 -30t86 -83.5t30.5 -121.5q0 -81 -37.5 -147t-102 -104t-143.5 -38q-71 0 -126.5 30t-86 83.5t-30.5 121.5zM639 1293q0 -36 23 -58t62 -22q46 0 73.5 30t27.5 74q0 36 -23 58t-62 22q-46 0 -73.5 -30t-27.5 -74z" />
<glyph unicode="&#xe6;" d="M6 221q0 114 52 196.5t150 126.5t234 44q48 0 99 -6l1 6q3 18 3 32q0 99 -124 99q-43 0 -88 -13.5t-97 -38.5q-14 -7 -28 -7q-20 0 -37.5 19t-33.5 61q-13 32 -13 58q0 43 38 64q76 41 155 62.5t152 21.5q160 0 225 -94q49 45 110.5 69.5t129.5 24.5q147 0 215 -87.5 t68 -244.5q0 -76 -18 -182q-6 -34 -23 -48t-51 -14h-406q-2 -18 -2 -38q0 -62 28 -94.5t79 -32.5q52 0 100.5 12t115.5 38q19 7 31 7q20 0 34 -19t27 -64q11 -41 11 -63q0 -26 -12 -41t-38 -26q-84 -34 -157 -52.5t-147 -18.5q-157 0 -219 124q-57 -62 -134.5 -93 t-164.5 -31q-79 0 -139 29.5t-93 84.5t-33 129zM238 260q0 -34 21 -52.5t62 -18.5q70 0 119 47.5t62 121.5l5 32q-37 3 -69 3q-101 0 -150.5 -31.5t-49.5 -101.5zM753 565h244q3 21 3 40q0 55 -21.5 84.5t-64.5 29.5q-60 0 -98.5 -37.5t-62.5 -116.5z" />
<glyph unicode="&#xe7;" d="M145 400q0 159 74.5 283.5t205.5 193.5t295 69q101 0 197 -22.5t174 -66.5q36 -20 36 -64q0 -35 -25 -85q-38 -77 -84 -77q-15 0 -33 10q-130 73 -276 73q-84 0 -152 -35.5t-107.5 -101.5t-39.5 -154q0 -100 55 -156.5t156 -56.5q73 0 153.5 19.5t157.5 55.5q14 7 28 7 q46 0 74 -87q12 -40 12 -68t-12 -46t-36 -29q-169 -72 -338 -82l-11 -63q88 -8 135.5 -51.5t47.5 -117.5q0 -100 -76.5 -160t-228.5 -60q-141 0 -240 35q-25 9 -25 43q0 17 10 49q10 31 26 47t33 16q4 0 12 -2q83 -29 158 -29q54 0 80.5 14t26.5 38q0 46 -89 46q-9 0 -19 -1 t-21 -1h-6q-27 0 -27 26q0 7 1 11l29 169q-157 31 -244 140.5t-87 270.5z" />
<glyph unicode="&#xe8;" d="M140 379q0 150 66 279.5t196 208.5t312 79q116 0 203.5 -39.5t135 -110.5t47.5 -162q0 -110 -59.5 -178.5t-188.5 -81.5l-455 -45q16 -61 63.5 -92.5t123.5 -31.5q174 0 365 55q12 4 25 4q23 0 36 -19.5t23 -68.5q6 -31 6 -54q0 -31 -13 -47.5t-42 -25.5 q-108 -34 -221.5 -52.5t-218.5 -18.5q-127 0 -218.5 51.5t-138.5 142.5t-47 207zM410 516l354 35q42 4 60 24t18 49q0 41 -39 68t-115 27q-101 0 -173.5 -51t-104.5 -152zM436 1276q0 39 40 93q57 75 103 75q17 0 33 -11l347 -255q21 -15 21 -43t-22 -63q-32 -51 -68 -51 q-13 0 -23 6l-407 205q-24 12 -24 44z" />
<glyph unicode="&#xe9;" d="M140 379q0 150 66 279.5t196 208.5t312 79q116 0 203.5 -39.5t135 -110.5t47.5 -162q0 -110 -59.5 -178.5t-188.5 -81.5l-455 -45q16 -61 63.5 -92.5t123.5 -31.5q174 0 365 55q12 4 25 4q23 0 36 -19.5t23 -68.5q6 -31 6 -54q0 -31 -13 -47.5t-42 -25.5 q-108 -34 -221.5 -52.5t-218.5 -18.5q-127 0 -218.5 51.5t-138.5 142.5t-47 207zM410 516l354 35q42 4 60 24t18 49q0 41 -39 68t-115 27q-101 0 -173.5 -51t-104.5 -152zM468 1135q0 28 21 43l347 255q16 11 33 11q46 0 103 -75q40 -54 40 -93q0 -32 -24 -44l-407 -205 q-10 -6 -23 -6q-36 0 -68 51q-22 35 -22 63z" />
<glyph unicode="&#xea;" d="M140 379q0 150 66 279.5t196 208.5t312 79q116 0 203.5 -39.5t135 -110.5t47.5 -162q0 -110 -59.5 -178.5t-188.5 -81.5l-455 -45q16 -61 63.5 -92.5t123.5 -31.5q174 0 365 55q12 4 25 4q23 0 36 -19.5t23 -68.5q6 -31 6 -54q0 -31 -13 -47.5t-42 -25.5 q-108 -34 -221.5 -52.5t-218.5 -18.5q-127 0 -218.5 51.5t-138.5 142.5t-47 207zM374 1118q0 30 29 51l295 218q16 12 33 17.5t42 5.5q26 0 40.5 -5.5t26.5 -17.5l232 -235q22 -22 22 -46q0 -26 -27 -59q-32 -39 -62 -39q-18 0 -37 13l-222 145l-265 -138q-17 -9 -30 -9 q-32 0 -60 48q-17 31 -17 51zM410 516l354 35q42 4 60 24t18 49q0 41 -39 68t-115 27q-101 0 -173.5 -51t-104.5 -152z" />
<glyph unicode="&#xeb;" d="M140 379q0 150 66 279.5t196 208.5t312 79q116 0 203.5 -39.5t135 -110.5t47.5 -162q0 -110 -59.5 -178.5t-188.5 -81.5l-455 -45q16 -61 63.5 -92.5t123.5 -31.5q174 0 365 55q12 4 25 4q23 0 36 -19.5t23 -68.5q6 -31 6 -54q0 -31 -13 -47.5t-42 -25.5 q-108 -34 -221.5 -52.5t-218.5 -18.5q-127 0 -218.5 51.5t-138.5 142.5t-47 207zM373 1123q0 8 1 13l29 164q6 35 34.5 49t98.5 14q63 0 90.5 -12t27.5 -38q0 -8 -1 -13l-29 -164q-6 -35 -35 -49t-99 -14q-64 0 -90.5 11.5t-26.5 38.5zM410 516l354 35q42 4 60 24t18 49 q0 41 -39 68t-115 27q-101 0 -173.5 -51t-104.5 -152zM813 1123q0 8 1 13l29 164q6 35 34.5 49t98.5 14q63 0 90.5 -12t27.5 -38q0 -8 -1 -13l-29 -164q-6 -35 -35 -49t-99 -14q-64 0 -90.5 11.5t-26.5 38.5z" />
<glyph unicode="&#xec;" d="M253 752q0 23 6 59q11 67 29 90t54 23h380q28 0 41 -10t13 -32q0 -5 -2 -21l-86 -490q-5 -32 -5 -53q0 -53 24.5 -78t72.5 -25q87 0 190 27q14 3 24 3q27 0 42.5 -22.5t25.5 -69.5q7 -35 7 -54q0 -27 -12 -44.5t-42 -27.5q-142 -49 -279 -49q-146 0 -226.5 77t-80.5 217 q0 45 9 96l57 331h-193q-26 0 -37.5 11t-11.5 42zM286 1276q0 39 40 93q57 75 103 75q17 0 33 -11l347 -255q21 -15 21 -43t-22 -63q-32 -51 -68 -51q-12 0 -23 6l-407 205q-24 12 -24 44z" />
<glyph unicode="&#xed;" d="M253 752q0 23 6 59q11 67 29 90t54 23h380q28 0 41 -10t13 -32q0 -5 -2 -21l-86 -490q-5 -32 -5 -53q0 -53 24.5 -78t72.5 -25q87 0 190 27q14 3 24 3q27 0 42.5 -22.5t25.5 -69.5q7 -35 7 -54q0 -27 -12 -44.5t-42 -27.5q-142 -49 -279 -49q-146 0 -226.5 77t-80.5 217 q0 45 9 96l57 331h-193q-26 0 -37.5 11t-11.5 42zM398 1135q0 28 21 43l347 255q16 11 33 11q46 0 103 -75q40 -54 40 -93q0 -32 -24 -44l-407 -205q-10 -6 -23 -6q-36 0 -68 51q-22 35 -22 63z" />
<glyph unicode="&#xee;" d="M253 752q0 23 6 59q11 67 29 90t54 23h380q28 0 41 -10t13 -32q0 -5 -2 -21l-86 -490q-5 -32 -5 -53q0 -53 24.5 -78t72.5 -25q87 0 190 27q14 3 24 3q27 0 42.5 -22.5t25.5 -69.5q7 -35 7 -54q0 -27 -12 -44.5t-42 -27.5q-142 -49 -279 -49q-146 0 -226.5 77t-80.5 217 q0 45 9 96l57 331h-193q-26 0 -37.5 11t-11.5 42zM314 1118q0 30 29 51l295 218q16 12 33 17.5t42 5.5q26 0 40.5 -5.5t26.5 -17.5l232 -235q22 -22 22 -46q0 -26 -27 -59q-32 -39 -62 -39q-18 0 -37 13l-222 145l-265 -138q-16 -9 -30 -9q-32 0 -60 48q-17 31 -17 51z" />
<glyph unicode="&#xef;" d="M253 752q0 23 6 59q11 67 29 90t54 23h380q28 0 41 -10t13 -32q0 -5 -2 -21l-86 -490q-5 -32 -5 -53q0 -53 24.5 -78t72.5 -25q87 0 190 27q14 3 24 3q27 0 42.5 -22.5t25.5 -69.5q7 -35 7 -54q0 -27 -12 -44.5t-42 -27.5q-142 -49 -279 -49q-146 0 -226.5 77t-80.5 217 q0 45 9 96l57 331h-193q-26 0 -37.5 11t-11.5 42zM311 1123q0 8 1 13l29 164q6 35 34.5 49t98.5 14q63 0 90.5 -12t27.5 -38q0 -8 -1 -13l-29 -164q-6 -35 -35 -49t-99 -14q-64 0 -90.5 11.5t-26.5 38.5zM751 1123q0 8 1 13l29 164q6 35 34.5 49t98.5 14q63 0 90.5 -12 t27.5 -38q0 -8 -1 -13l-29 -164q-6 -35 -35 -49t-99 -14q-64 0 -90.5 11.5t-26.5 38.5z" />
<glyph unicode="&#xf0;" d="M122 359q0 117 57 233.5t177.5 195t299.5 78.5q113 0 196 -54q-44 96 -122 175l-163 -79q-20 -10 -35 -10q-17 0 -31 14.5t-29 47.5q-16 35 -16 56q0 17 10 29t32 22l84 41q-29 19 -68 41q-24 14 -24 37q0 34 50 91q34 39 58 55.5t45 16.5q17 0 33 -9q90 -50 161 -108 l165 80q22 10 33 10q15 0 27.5 -14.5t28.5 -48.5q18 -37 18 -59q0 -16 -9 -27t-29 -20l-107 -52q82 -105 123.5 -228t41.5 -260q0 -78 -16 -171q-26 -148 -102 -252.5t-193.5 -158t-267.5 -53.5q-130 0 -227 49t-149 135.5t-52 196.5zM390 375q0 -80 50.5 -125t139.5 -45 q85 0 145 37.5t90.5 98.5t30.5 129q0 80 -50.5 124.5t-139.5 44.5q-88 0 -148 -39.5t-89 -100t-29 -124.5z" />
<glyph unicode="&#xf1;" d="M109 42q0 5 2 21l140 798q6 34 23 48.5t51 14.5h94q28 0 41 -10t13 -32q0 -5 -2 -21l-21 -125q80 99 175.5 154.5t200.5 55.5q86 0 150.5 -37t99.5 -102t35 -147q0 -34 -6 -70l-92 -527q-6 -34 -23 -48.5t-51 -14.5h-124q-28 0 -41 10t-13 32q0 5 2 21l86 488q5 30 5 49 q0 109 -114 109q-64 0 -134.5 -49t-123.5 -130t-69 -172l-52 -295q-6 -34 -23 -48.5t-51 -14.5h-124q-28 0 -41 10t-13 32zM358 1176q0 20 10 34q51 76 115 118.5t133 42.5q40 0 73 -12t77 -34q36 -18 58.5 -26.5t46.5 -8.5q61 0 129 72q14 14 30 14q29 0 66 -40 q36 -40 36 -76q0 -20 -10 -34q-51 -76 -115 -118.5t-133 -42.5q-40 0 -73 12t-77 34q-36 18 -58.5 26.5t-46.5 8.5q-61 0 -129 -72q-14 -14 -30 -14q-29 0 -66 40q-36 40 -36 76z" />
<glyph unicode="&#xf2;" d="M130 387q0 136 59 264t182.5 211.5t306.5 83.5q137 0 237 -52t152.5 -144.5t52.5 -212.5q0 -136 -59 -264t-182.5 -211.5t-306.5 -83.5q-137 0 -237 52t-152.5 144.5t-52.5 212.5zM391 406q0 -91 53 -143.5t146 -52.5q82 0 143 42.5t93.5 113t32.5 152.5q0 91 -53 143.5 t-146 52.5q-82 0 -143 -42.5t-93.5 -113t-32.5 -152.5zM436 1276q0 39 40 93q57 75 103 75q17 0 33 -11l347 -255q21 -15 21 -43t-22 -63q-32 -51 -68 -51q-13 0 -23 6l-407 205q-24 12 -24 44z" />
<glyph unicode="&#xf3;" d="M130 387q0 136 59 264t182.5 211.5t306.5 83.5q137 0 237 -52t152.5 -144.5t52.5 -212.5q0 -136 -59 -264t-182.5 -211.5t-306.5 -83.5q-137 0 -237 52t-152.5 144.5t-52.5 212.5zM391 406q0 -91 53 -143.5t146 -52.5q82 0 143 42.5t93.5 113t32.5 152.5q0 91 -53 143.5 t-146 52.5q-82 0 -143 -42.5t-93.5 -113t-32.5 -152.5zM488 1135q0 28 21 43l347 255q16 11 33 11q46 0 103 -75q40 -54 40 -93q0 -32 -24 -44l-407 -205q-11 -6 -23 -6q-36 0 -68 51q-22 35 -22 63z" />
<glyph unicode="&#xf4;" d="M130 387q0 136 59 264t182.5 211.5t306.5 83.5q137 0 237 -52t152.5 -144.5t52.5 -212.5q0 -136 -59 -264t-182.5 -211.5t-306.5 -83.5q-137 0 -237 52t-152.5 144.5t-52.5 212.5zM374 1118q0 30 29 51l295 218q16 12 33 17.5t42 5.5q26 0 40.5 -5.5t26.5 -17.5l232 -235 q22 -22 22 -46q0 -26 -27 -59q-32 -39 -62 -39q-18 0 -37 13l-222 145l-265 -138q-17 -9 -30 -9q-32 0 -60 48q-17 31 -17 51zM391 406q0 -91 53 -143.5t146 -52.5q82 0 143 42.5t93.5 113t32.5 152.5q0 91 -53 143.5t-146 52.5q-82 0 -143 -42.5t-93.5 -113t-32.5 -152.5z " />
<glyph unicode="&#xf5;" d="M130 387q0 136 59 264t182.5 211.5t306.5 83.5q137 0 237 -52t152.5 -144.5t52.5 -212.5q0 -136 -59 -264t-182.5 -211.5t-306.5 -83.5q-137 0 -237 52t-152.5 144.5t-52.5 212.5zM348 1176q0 20 10 34q51 76 115 118.5t133 42.5q40 0 73 -12t77 -34q36 -18 58.5 -26.5 t46.5 -8.5q61 0 129 72q14 14 30 14q29 0 66 -40q36 -40 36 -76q0 -20 -10 -34q-51 -76 -115 -118.5t-133 -42.5q-40 0 -73 12t-77 34q-36 18 -58.5 26.5t-46.5 8.5q-61 0 -129 -72q-14 -14 -30 -14q-29 0 -66 40q-36 40 -36 76zM391 406q0 -91 53 -143.5t146 -52.5 q82 0 143 42.5t93.5 113t32.5 152.5q0 91 -53 143.5t-146 52.5q-82 0 -143 -42.5t-93.5 -113t-32.5 -152.5z" />
<glyph unicode="&#xf6;" d="M130 387q0 136 59 264t182.5 211.5t306.5 83.5q137 0 237 -52t152.5 -144.5t52.5 -212.5q0 -136 -59 -264t-182.5 -211.5t-306.5 -83.5q-137 0 -237 52t-152.5 144.5t-52.5 212.5zM376 1123q0 8 1 13l29 164q6 35 34.5 49t98.5 14q63 0 90.5 -12t27.5 -38q0 -8 -1 -13 l-29 -164q-6 -35 -35 -49t-99 -14q-64 0 -90.5 11.5t-26.5 38.5zM391 406q0 -91 53 -143.5t146 -52.5q82 0 143 42.5t93.5 113t32.5 152.5q0 91 -53 143.5t-146 52.5q-82 0 -143 -42.5t-93.5 -113t-32.5 -152.5zM816 1123q0 8 1 13l29 164q6 35 34.5 49t98.5 14 q63 0 90.5 -12t27.5 -38q0 -8 -1 -13l-29 -164q-6 -35 -35 -49t-99 -14q-64 0 -90.5 11.5t-26.5 38.5z" />
<glyph unicode="&#xf7;" d="M195 521q0 26 7 61q8 47 19 71t25.5 33t38.5 9h762q26 0 38 -11t12 -41q0 -26 -7 -61q-8 -47 -18.5 -71t-25.5 -32.5t-39 -8.5h-762q-26 0 -38 10.5t-12 40.5zM451 122q0 7 1 11l26 144q6 34 38 48.5t98 14.5q60 0 87.5 -12t27.5 -39q0 -8 -1 -12l-26 -144 q-5 -34 -37.5 -48.5t-98.5 -14.5q-60 0 -87.5 12t-27.5 40zM565 876q0 8 1 12l25 144q6 34 38 48.5t98 14.5q60 0 87.5 -12t27.5 -39q0 -8 -1 -12l-25 -144q-6 -34 -38.5 -48.5t-98.5 -14.5q-60 0 -87 12t-27 39z" />
<glyph unicode="&#xf8;" d="M42 43q0 22 28 47l107 94q-47 89 -47 203q0 136 59 264t182.5 211.5t306.5 83.5q169 0 281 -78l109 95q26 23 46 23q26 0 62 -42q32 -38 32 -63q0 -22 -28 -47l-107 -94q47 -89 47 -203q0 -136 -59 -264t-182.5 -211.5t-306.5 -83.5q-169 0 -281 78l-109 -95 q-26 -23 -46 -23q-26 0 -62 42q-32 38 -32 63zM391 406q0 -13 2 -33l367 321q-43 20 -100 20q-82 0 -143 -42.5t-93.5 -113t-32.5 -152.5zM490 230q43 -20 100 -20q82 0 143 42.5t93.5 113t32.5 152.5q0 13 -2 33z" />
<glyph unicode="&#xf9;" d="M139 264q0 34 6 70l92 527q6 34 23 48.5t51 14.5h124q28 0 41 -10t13 -32q0 -5 -2 -21l-86 -488q-5 -30 -5 -49q0 -109 114 -109q64 0 134.5 49t123.5 130t69 172l52 295q6 34 23 48.5t51 14.5h124q28 0 41 -10t13 -32q0 -5 -2 -21l-140 -798q-6 -34 -23 -48.5t-51 -14.5 h-94q-28 0 -41 10t-13 32q0 5 2 21l21 125q-80 -99 -175.5 -154.5t-200.5 -55.5q-86 0 -150.5 37t-99.5 102t-35 147zM396 1276q0 39 40 93q57 75 103 75q17 0 33 -11l347 -255q21 -15 21 -43t-22 -63q-32 -51 -68 -51q-13 0 -23 6l-407 205q-24 12 -24 44z" />
<glyph unicode="&#xfa;" d="M139 264q0 34 6 70l92 527q6 34 23 48.5t51 14.5h124q28 0 41 -10t13 -32q0 -5 -2 -21l-86 -488q-5 -30 -5 -49q0 -109 114 -109q64 0 134.5 49t123.5 130t69 172l52 295q6 34 23 48.5t51 14.5h124q28 0 41 -10t13 -32q0 -5 -2 -21l-140 -798q-6 -34 -23 -48.5t-51 -14.5 h-94q-28 0 -41 10t-13 32q0 5 2 21l21 125q-80 -99 -175.5 -154.5t-200.5 -55.5q-86 0 -150.5 37t-99.5 102t-35 147zM498 1135q0 28 21 43l347 255q16 11 33 11q46 0 103 -75q40 -54 40 -93q0 -32 -24 -44l-407 -205q-10 -6 -23 -6q-36 0 -68 51q-22 35 -22 63z" />
<glyph unicode="&#xfb;" d="M139 264q0 34 6 70l92 527q6 34 23 48.5t51 14.5h124q28 0 41 -10t13 -32q0 -5 -2 -21l-86 -488q-5 -30 -5 -49q0 -109 114 -109q64 0 134.5 49t123.5 130t69 172l52 295q6 34 23 48.5t51 14.5h124q28 0 41 -10t13 -32q0 -5 -2 -21l-140 -798q-6 -34 -23 -48.5t-51 -14.5 h-94q-28 0 -41 10t-13 32q0 5 2 21l21 125q-80 -99 -175.5 -154.5t-200.5 -55.5q-86 0 -150.5 37t-99.5 102t-35 147zM374 1118q0 30 29 51l295 218q16 12 33 17.5t42 5.5q26 0 40.5 -5.5t26.5 -17.5l232 -235q22 -22 22 -46q0 -26 -27 -59q-32 -39 -62 -39q-18 0 -37 13 l-222 145l-265 -138q-17 -9 -30 -9q-32 0 -60 48q-17 31 -17 51z" />
<glyph unicode="&#xfc;" d="M139 264q0 34 6 70l92 527q6 34 23 48.5t51 14.5h124q28 0 41 -10t13 -32q0 -5 -2 -21l-86 -488q-5 -30 -5 -49q0 -109 114 -109q64 0 134.5 49t123.5 130t69 172l52 295q6 34 23 48.5t51 14.5h124q28 0 41 -10t13 -32q0 -5 -2 -21l-140 -798q-6 -34 -23 -48.5t-51 -14.5 h-94q-28 0 -41 10t-13 32q0 5 2 21l21 125q-80 -99 -175.5 -154.5t-200.5 -55.5q-86 0 -150.5 37t-99.5 102t-35 147zM373 1123q0 8 1 13l29 164q6 35 34.5 49t98.5 14q63 0 90.5 -12t27.5 -38q0 -8 -1 -13l-29 -164q-6 -35 -35 -49t-99 -14q-64 0 -90.5 11.5t-26.5 38.5z M813 1123q0 8 1 13l29 164q6 35 34.5 49t98.5 14q63 0 90.5 -12t27.5 -38q0 -8 -1 -13l-29 -164q-6 -35 -35 -49t-99 -14q-64 0 -90.5 11.5t-26.5 38.5z" />
<glyph unicode="&#xfd;" d="M185 854q0 27 26.5 44.5t84.5 27.5q46 8 71 8q31 0 47 -10.5t22 -33.5l145 -592l356 602q24 41 75 41q32 0 85 -15q51 -15 75 -32.5t24 -39.5q0 -16 -12 -34l-737 -1184q-13 -21 -31 -31t-46 -10q-32 0 -83 15t-75.5 32.5t-24.5 39.5q0 14 13 34l204 299l-217 821 q-2 6 -2 18zM546 1135q0 28 21 43l347 255q16 11 33 11q46 0 103 -75q40 -54 40 -93q0 -32 -24 -44l-407 -205q-10 -6 -23 -6q-36 0 -68 51q-22 35 -22 63z" />
<glyph unicode="&#xfe;" d="M37 -346q0 5 2 21l277 1574q6 34 23 48.5t51 14.5h124q28 0 41 -10t13 -32q0 -5 -2 -21l-72 -411q57 51 126 79.5t146 28.5q108 0 188 -51t123.5 -142t43.5 -209q0 -134 -57 -264.5t-171.5 -216t-276.5 -85.5q-78 0 -143.5 32.5t-108.5 90.5l-75 -426q-6 -34 -23 -48.5 t-51 -14.5h-124q-28 0 -41 10t-13 32zM415 402q0 -91 53 -141.5t138 -50.5t142.5 50t85 125t27.5 148q0 84 -44.5 132.5t-122.5 48.5q-86 0 -149 -46t-96.5 -118.5t-33.5 -147.5z" />
<glyph unicode="&#xff;" d="M185 854q0 27 26.5 44.5t84.5 27.5q46 8 71 8q31 0 47 -10.5t22 -33.5l145 -592l356 602q24 41 75 41q32 0 85 -15q51 -15 75 -32.5t24 -39.5q0 -16 -12 -34l-737 -1184q-13 -21 -31 -31t-46 -10q-32 0 -83 15t-75.5 32.5t-24.5 39.5q0 14 13 34l204 299l-217 821 q-2 6 -2 18zM367 1123q0 8 1 13l29 164q6 35 34.5 49t98.5 14q63 0 90.5 -12t27.5 -38q0 -8 -1 -13l-29 -164q-6 -35 -35 -49t-99 -14q-64 0 -90.5 11.5t-26.5 38.5zM807 1123q0 8 1 13l29 164q6 35 34.5 49t98.5 14q63 0 90.5 -12t27.5 -38q0 -8 -1 -13l-29 -164 q-6 -35 -35 -49t-99 -14q-64 0 -90.5 11.5t-26.5 38.5z" />
<glyph unicode="&#x152;" d="M81 476q0 119 38 246t109 224q86 118 213 179.5t286 61.5h509q26 0 37.5 -12t11.5 -43q0 -27 -7 -63q-8 -47 -19 -72.5t-26 -35t-39 -9.5h-297l-39 -223h234q26 0 37.5 -12t11.5 -43q0 -27 -7 -63q-8 -47 -19 -72.5t-25.5 -35t-38.5 -9.5h-234l-46 -259h317 q26 0 37.5 -12t11.5 -43q0 -27 -7 -63q-8 -47 -19 -72.5t-25.5 -35t-38.5 -9.5h-497q-142 0 -248 58.5t-163.5 166t-57.5 251.5zM337 477q0 -106 46.5 -166.5t138.5 -71.5l125 707q-123 -16 -199 -112q-53 -67 -82 -166t-29 -191z" />
<glyph unicode="&#x153;" d="M28 333q0 81 18 174t53.5 178.5t85.5 141.5q105 119 275 119q75 0 130.5 -29t86.5 -81q119 110 257 110q147 0 215 -87.5t68 -244.5q0 -76 -18 -182q-6 -34 -23 -48t-51 -14h-406q-2 -18 -2 -38q0 -62 28 -94.5t79 -32.5q52 0 100.5 12t115.5 38q19 7 31 7q20 0 34 -19 t27 -64q11 -41 11 -63q0 -26 -12 -41t-38 -26q-84 -34 -157 -52.5t-147 -18.5q-144 0 -209 106q-101 -106 -250 -106q-152 0 -227 96t-75 259zM262 330q0 -64 21.5 -94.5t66.5 -30.5q62 0 100 59q32 49 55 152.5t23 177.5q0 64 -21.5 94.5t-66.5 30.5q-65 0 -106 -69 q-30 -50 -51 -148.5t-21 -171.5zM753 565h244q3 21 3 40q0 55 -21.5 84.5t-64.5 29.5q-60 0 -98.5 -37.5t-62.5 -116.5z" />
<glyph unicode="&#x178;" d="M222 1095q0 21 22 39t74 40q64 26 94 26q32 0 45 -31l198 -460l362 460q25 31 61 31t94 -27q80 -36 80 -78q0 -21 -20 -46l-485 -606l-67 -380q-6 -34 -23 -48.5t-51 -14.5h-124q-28 0 -41 10t-13 32q0 5 2 21l70 400l-272 606q-6 14 -6 26zM421 1393q0 8 1 13l29 164 q6 35 34.5 49t98.5 14q63 0 90.5 -12t27.5 -38q0 -8 -1 -13l-29 -164q-6 -35 -35 -49t-99 -14q-64 0 -90.5 11.5t-26.5 38.5zM861 1393q0 8 1 13l29 164q6 35 34.5 49t98.5 14q63 0 90.5 -12t27.5 -38q0 -8 -1 -13l-29 -164q-6 -35 -35 -49t-99 -14q-64 0 -90.5 11.5 t-26.5 38.5z" />
<glyph unicode="&#x2c6;" d="M394 1118q0 30 29 51l295 218q16 12 33 17.5t42 5.5q26 0 40.5 -5.5t26.5 -17.5l232 -235q22 -22 22 -46q0 -26 -27 -59q-32 -39 -62 -39q-18 0 -37 13l-222 145l-265 -138q-16 -9 -30 -9q-32 0 -60 48q-17 31 -17 51z" />
<glyph unicode="&#x2dc;" d="M378 1176q0 20 10 34q51 76 115 118.5t133 42.5q40 0 73 -12t77 -34q36 -18 58.5 -26.5t46.5 -8.5q61 0 129 72q14 14 30 14q29 0 66 -40q36 -40 36 -76q0 -20 -10 -34q-51 -76 -115 -118.5t-133 -42.5q-40 0 -73 12t-77 34q-36 18 -58.5 26.5t-46.5 8.5q-61 0 -129 -72 q-14 -14 -30 -14q-29 0 -66 40q-36 40 -36 76z" />
<glyph unicode="&#x2000;" horiz-adv-x="898" />
<glyph unicode="&#x2001;" horiz-adv-x="1797" />
<glyph unicode="&#x2002;" horiz-adv-x="898" />
<glyph unicode="&#x2003;" horiz-adv-x="1797" />
<glyph unicode="&#x2004;" horiz-adv-x="599" />
<glyph unicode="&#x2005;" horiz-adv-x="449" />
<glyph unicode="&#x2006;" horiz-adv-x="299" />
<glyph unicode="&#x2007;" horiz-adv-x="299" />
<glyph unicode="&#x2008;" horiz-adv-x="224" />
<glyph unicode="&#x2009;" horiz-adv-x="359" />
<glyph unicode="&#x200a;" horiz-adv-x="99" />
<glyph unicode="&#x2010;" d="M195 521q0 26 7 61q8 47 19 71t25.5 33t38.5 9h762q26 0 38 -11t12 -41q0 -26 -7 -61q-8 -47 -18.5 -71t-25.5 -32.5t-39 -8.5h-762q-26 0 -38 10.5t-12 40.5z" />
<glyph unicode="&#x2011;" d="M195 521q0 26 7 61q8 47 19 71t25.5 33t38.5 9h762q26 0 38 -11t12 -41q0 -26 -7 -61q-8 -47 -18.5 -71t-25.5 -32.5t-39 -8.5h-762q-26 0 -38 10.5t-12 40.5z" />
<glyph unicode="&#x2012;" d="M195 521q0 26 7 61q8 47 19 71t25.5 33t38.5 9h762q26 0 38 -11t12 -41q0 -26 -7 -61q-8 -47 -18.5 -71t-25.5 -32.5t-39 -8.5h-762q-26 0 -38 10.5t-12 40.5z" />
<glyph unicode="&#x2013;" d="M195 521q0 26 7 61q8 47 19 71t25.5 33t38.5 9h762q26 0 38 -11t12 -41q0 -26 -7 -61q-8 -47 -18.5 -71t-25.5 -32.5t-39 -8.5h-762q-26 0 -38 10.5t-12 40.5z" />
<glyph unicode="&#x2014;" d="M-5 521q0 26 7 61q8 47 19 71t25.5 33t38.5 9h1162q26 0 38 -11t12 -41q0 -26 -7 -61q-8 -47 -18.5 -71t-25.5 -32.5t-39 -8.5h-1162q-26 0 -38 10.5t-12 40.5z" />
<glyph unicode="&#x2018;" d="M440 738q0 18 11 34l291 469q22 34 54.5 50t82.5 16q38 0 56 -11t18 -35q0 -16 -9 -40l-174 -472q-7 -19 -22.5 -29.5t-36.5 -10.5h-238q-15 0 -24 8t-9 21z" />
<glyph unicode="&#x2019;" d="M468 717q0 16 9 40l174 472q7 19 22.5 29.5t36.5 10.5h238q15 0 24 -8t9 -21q0 -17 -11 -34l-291 -469q-22 -34 -54.5 -50t-82.5 -16q-38 0 -56 11t-18 35z" />
<glyph unicode="&#x201a;" d="M298 -248q0 16 9 40l174 472q7 19 22.5 29.5t36.5 10.5h238q15 0 24 -8t9 -21q0 -17 -11 -34l-291 -469q-22 -34 -54.5 -50t-82.5 -16q-38 0 -56 11t-18 35z" />
<glyph unicode="&#x201c;" d="M160 738q0 18 11 34l291 469q22 34 54.5 50t82.5 16q38 0 56 -11t18 -35q0 -16 -9 -40l-174 -472q-7 -19 -22.5 -29.5t-36.5 -10.5h-238q-15 0 -24 8t-9 21zM720 738q0 18 11 34l291 469q22 34 54.5 50t82.5 16q38 0 56 -11t18 -35q0 -16 -9 -40l-174 -472 q-7 -19 -22.5 -29.5t-36.5 -10.5h-238q-15 0 -24 8t-9 21z" />
<glyph unicode="&#x201d;" d="M188 717q0 16 9 40l174 472q7 19 22.5 29.5t36.5 10.5h238q15 0 24 -8t9 -21q0 -17 -11 -34l-291 -469q-22 -34 -54.5 -50t-82.5 -16q-38 0 -56 11t-18 35zM748 717q0 16 9 40l174 472q7 19 22.5 29.5t36.5 10.5h238q15 0 24 -8t9 -21q0 -17 -11 -34l-291 -469 q-22 -34 -54.5 -50t-82.5 -16q-38 0 -56 11t-18 35z" />
<glyph unicode="&#x201e;" d="M18 -248q0 16 9 40l174 472q7 19 22.5 29.5t36.5 10.5h238q15 0 24 -8t9 -21q0 -17 -11 -34l-291 -469q-22 -34 -54.5 -50t-82.5 -16q-38 0 -56 11t-18 35zM578 -248q0 16 9 40l174 472q7 19 22.5 29.5t36.5 10.5h238q15 0 24 -8t9 -21q0 -17 -11 -34l-291 -469 q-22 -34 -54.5 -50t-82.5 -16q-38 0 -56 11t-18 35z" />
<glyph unicode="&#x2022;" d="M361 402q0 4 2 16l58 332q11 58 71 83t193 25q126 0 187 -22t61 -70q0 -4 -2 -16l-58 -332q-11 -58 -71 -83t-193 -25q-126 0 -187 22t-61 70z" />
<glyph unicode="&#x2026;" d="M27 42q0 7 1 11l31 174q6 34 35.5 48.5t94.5 14.5q62 0 91.5 -12.5t29.5 -39.5q0 -7 -1 -11l-31 -174q-6 -34 -35.5 -48.5t-94.5 -14.5q-62 0 -91.5 12.5t-29.5 39.5zM427 42q0 7 1 11l31 174q6 34 35.5 48.5t94.5 14.5q62 0 91.5 -12.5t29.5 -39.5q0 -7 -1 -11l-31 -174 q-6 -34 -35.5 -48.5t-94.5 -14.5q-62 0 -91.5 12.5t-29.5 39.5zM827 42q0 7 1 11l31 174q6 34 35.5 48.5t94.5 14.5q62 0 91.5 -12.5t29.5 -39.5q0 -7 -1 -11l-31 -174q-6 -34 -35.5 -48.5t-94.5 -14.5q-62 0 -91.5 12.5t-29.5 39.5z" />
<glyph unicode="&#x202f;" horiz-adv-x="359" />
<glyph unicode="&#x2039;" d="M375 555q0 15 12 27l330 349q15 15 35 15q36 0 94 -49q55 -46 55 -86q0 -22 -17 -39l-238 -242l168 -264q10 -17 10 -31q0 -43 -74 -84q-54 -30 -88 -30q-30 0 -45 24l-235 387q-7 12 -7 23z" />
<glyph unicode="&#x203a;" d="M374 257q0 22 17 39l238 242l-168 264q-10 17 -10 31q0 43 74 84q54 30 88 30q30 0 45 -24l235 -387q7 -12 7 -23q0 -15 -12 -27l-330 -349q-15 -15 -35 -15q-36 0 -94 49q-55 46 -55 86z" />
<glyph unicode="&#x205f;" horiz-adv-x="449" />
<glyph unicode="&#x20ac;" d="M81 387q0 15 5 47q10 58 27.5 78t52.5 20h79q3 68 13 123h-70q-27 0 -39 10.5t-12 39.5q0 15 5 47q10 58 27.5 78t52.5 20h94q76 170 217.5 264.5t318.5 94.5q195 0 346 -87q42 -24 42 -71q0 -29 -16 -71q-35 -86 -82 -86q-14 0 -28 8q-64 34 -128.5 52t-135.5 18 q-73 0 -135 -31t-108 -91h247q27 0 39 -10.5t12 -39.5q0 -16 -5 -48q-10 -57 -27.5 -77t-52.5 -20h-298q-13 -63 -16 -123h292q27 0 39 -11t12 -40q0 -15 -5 -47q-10 -57 -27.5 -77t-52.5 -20h-237q46 -122 184 -122q139 0 284 70q16 8 29 8q43 0 71 -84q14 -44 14 -70 q0 -50 -47 -74q-78 -39 -173 -63t-189 -24q-174 0 -290 94t-152 265h-126q-27 0 -39 10.5t-12 39.5z" />
<glyph unicode="&#x2122;" d="M194 1201q0 14 3 33q9 47 25.5 62.5t51.5 15.5h402q28 0 40.5 -9t12.5 -34q0 -16 -4 -35q-8 -47 -24 -62t-52 -15h-121l-61 -344q-6 -36 -25 -50.5t-67 -14.5q-39 0 -54.5 10t-15.5 32q0 5 2 23l61 344h-121q-29 0 -41 9t-12 35zM698 787q0 6 4 26l108 444 q9 36 28.5 50.5t63.5 14.5q33 0 48 -6.5t20 -22.5l95 -256l185 256q11 15 30 22t52 7q41 0 59 -12t18 -40l-1 -13l-48 -444q-4 -36 -22 -50.5t-63 -14.5q-39 0 -55.5 11.5t-16.5 37.5q0 10 1 16l27 209l-114 -157q-16 -23 -37.5 -35t-42.5 -12t-38 12t-26 35l-66 173 l-49 -225q-8 -35 -29 -50t-66 -15q-35 0 -50 9t-15 30z" />
<glyph unicode="&#x25fc;" horiz-adv-x="940" d="M0 0v940h940v-940h-940z" />
<glyph unicode="&#xfb01;" horiz-adv-x="2456" d="M-97 -261q0 31 28 79q23 40 44 59.5t43 19.5q12 0 28 -8q109 -62 185 -62q60 0 96.5 34t50.5 112l117 666h-183q-26 0 -37.5 12t-11.5 43q0 23 6 57q11 65 29.5 89t53.5 24h183l13 73q33 189 132.5 284.5t271.5 95.5q147 0 294 -57q46 -18 46 -67q0 -27 -15 -69 q-17 -46 -35.5 -65.5t-41.5 -19.5q-12 0 -24 4q-129 37 -222 37q-63 0 -104 -39t-55 -117l-11 -60h312q26 0 37.5 -12.5t11.5 -43.5q0 -22 -6 -57q-11 -65 -29.5 -88.5t-53.5 -23.5h-311l-119 -679q-33 -185 -129 -277.5t-264 -92.5q-75 0 -153.5 26t-145.5 70 q-31 21 -31 53zM1481 752q0 23 6 59q11 67 29 90t54 23h380q28 0 41 -10t13 -32q0 -5 -2 -21l-86 -490q-5 -32 -5 -53q0 -53 24.5 -78t72.5 -25q87 0 190 27q14 3 24 3q27 0 42.5 -22.5t25.5 -69.5q7 -35 7 -54q0 -27 -12 -44.5t-42 -27.5q-142 -49 -279 -49 q-146 0 -226.5 77t-80.5 217q0 45 9 96l57 331h-193q-26 0 -37.5 11t-11.5 42zM1799 1123q0 8 1 13l29 164q6 35 34.5 49t98.5 14q63 0 90.5 -12t27.5 -38q0 -8 -1 -13l-29 -164q-6 -35 -35 -49t-99 -14q-64 0 -90.5 11.5t-26.5 38.5z" />
<glyph unicode="&#xfb02;" horiz-adv-x="2456" d="M-97 -261q0 31 28 79q23 40 44 59.5t43 19.5q12 0 28 -8q109 -62 185 -62q60 0 96.5 34t50.5 112l117 666h-183q-26 0 -37.5 12t-11.5 43q0 23 6 57q11 65 29.5 89t53.5 24h183l13 73q33 189 132.5 284.5t271.5 95.5q147 0 294 -57q46 -18 46 -67q0 -27 -15 -69 q-17 -46 -35.5 -65.5t-41.5 -19.5q-12 0 -24 4q-129 37 -222 37q-63 0 -104 -39t-55 -117l-11 -60h312q26 0 37.5 -12.5t11.5 -43.5q0 -22 -6 -57q-11 -65 -29.5 -88.5t-53.5 -23.5h-311l-119 -679q-33 -185 -129 -277.5t-264 -92.5q-75 0 -153.5 26t-145.5 70 q-31 21 -31 53zM1480 1140q0 23 6 59q11 67 29 90t54 23h420q28 0 41 -10t13 -32q0 -5 -2 -21l-155 -878q-5 -32 -5 -53q0 -53 24.5 -78t72.5 -25q87 0 190 27q14 3 24 3q27 0 42.5 -22.5t25.5 -69.5q7 -35 7 -54q0 -27 -12 -44.5t-42 -27.5q-142 -49 -279 -49 q-146 0 -226.5 77t-80.5 217q0 45 9 96l126 719h-233q-26 0 -37.5 11t-11.5 42z" />
</font>
</defs>
</svg>
